M48
; DRILL file {KiCad 7.0.2} date Wed Sep 11 18:36:13 2024
; FORMAT={-:-/ absolute / metric / decimal}
; #@! TF.CreationDate,2024-09-11T18:36:13+10:00
; #@! TF.GenerationSoftware,Kicad,Pcbnew,7.0.2
; #@! TF.FileFunction,Plated,1,2,PTH
FMAT,2
METRIC
; #@! TA.AperFunction,Plated,PTH,ViaDrill
T1C0.400
; #@! TA.AperFunction,Plated,PTH,ComponentDrill
T2C0.600
; #@! TA.AperFunction,Plated,PTH,ComponentDrill
T3C1.270
%
G90
G05
T1
X198.75Y-142.75
X198.75Y-143.75
X198.75Y-144.75
X198.75Y-145.75
X198.75Y-146.75
X198.75Y-147.75
X198.75Y-148.75
X203.25Y-144.5
X205.0Y-142.75
X205.0Y-150.75
X205.0Y-155.5
X205.966Y-111.412
X206.25Y-139.5
X206.25Y-154.0
X207.716Y-111.412
X207.75Y-139.5
X208.216Y-106.912
X209.25Y-139.5
X209.25Y-155.5
X209.25Y-159.5
X210.25Y-142.5
X210.25Y-147.5
X210.25Y-148.75
X210.25Y-150.0
X210.75Y-159.5
X211.25Y-146.6
X211.25Y-151.0
X212.0Y-156.75
X212.427Y-108.162
X212.427Y-113.412
X212.5Y-146.6
X212.5Y-151.0
X213.75Y-146.6
X213.75Y-151.0
X214.7Y-147.5
X214.7Y-148.75
X214.7Y-150.0
X214.75Y-135.75
X215.0Y-155.731
X215.75Y-107.5
X215.75Y-120.75
X216.25Y-135.75
X216.716Y-106.912
X216.75Y-129.5
X217.216Y-111.412
X217.5Y-138.0
X217.75Y-119.0
X218.5Y-143.75
X218.75Y-136.75
X218.966Y-111.412
X219.25Y-158.981
X219.5Y-154.481
X219.5Y-160.981
X220.0Y-143.75
X222.25Y-117.0
X222.25Y-148.75
X222.25Y-149.75
X223.5Y-142.0
X223.5Y-143.0
X223.5Y-144.0
X223.5Y-145.0
X223.5Y-146.0
X223.5Y-147.0
X223.5Y-148.0
X224.0Y-133.25
X225.5Y-118.5
X228.0Y-121.25
X229.75Y-139.25
X230.75Y-173.75
X230.75Y-179.75
X233.0Y-116.0
X236.0Y-156.75
X237.0Y-115.5
X238.25Y-151.75
X240.75Y-151.75
X241.25Y-161.75
T3
X50.604Y-137.073
X54.555Y-118.488
X55.058Y-140.167
X58.505Y-99.903
X59.009Y-121.582
X62.959Y-102.997
X69.605Y-139.067
X73.555Y-120.482
X74.059Y-142.161
X77.505Y-101.897
X78.009Y-123.576
X81.96Y-104.991
X88.709Y-140.572
X92.66Y-121.987
X93.164Y-143.666
X96.61Y-103.402
X97.114Y-125.081
X101.064Y-106.496
X103.864Y-160.662
X107.814Y-142.077
X108.318Y-163.755
X111.764Y-123.492
X112.268Y-145.171
X115.715Y-104.907
X116.218Y-126.586
X120.169Y-108.001
X121.929Y-167.057
X125.879Y-148.473
X126.383Y-170.151
X129.829Y-129.888
X130.333Y-151.566
X133.78Y-111.303
X134.283Y-132.981
X138.234Y-114.397
X140.929Y-169.051
X144.88Y-150.467
X145.383Y-172.145
X148.83Y-131.882
X149.334Y-153.56
X152.78Y-113.297
X153.284Y-134.975
X157.234Y-116.391
X164.712Y-148.548
X166.986Y-177.224
X168.662Y-129.963
X169.166Y-151.642
X170.488Y-181.365
X172.613Y-111.378
X173.116Y-133.057
X177.067Y-114.472
X242.528Y-113.458
X246.478Y-132.042
X247.855Y-114.472
X249.026Y-181.764
X250.429Y-150.627
X251.806Y-133.057
X254.434Y-181.365
X255.756Y-151.642
X262.36Y-115.376
X266.311Y-133.961
X267.688Y-116.391
X270.261Y-152.546
X271.638Y-134.975
X274.211Y-171.131
X275.588Y-153.56
X279.539Y-172.145
X281.361Y-113.382
X285.311Y-131.967
X286.688Y-114.397
X289.262Y-150.552
X290.639Y-132.981
X293.212Y-169.137
X294.589Y-151.566
X298.539Y-170.151
X299.426Y-106.986
X303.376Y-125.571
X304.753Y-108.001
X307.327Y-144.156
X308.704Y-126.586
X311.277Y-162.741
X312.654Y-145.171
X316.604Y-163.755
X318.531Y-105.481
X322.481Y-124.066
X323.858Y-106.496
X326.431Y-142.651
X327.808Y-125.081
X331.759Y-143.666
X337.635Y-103.976
X341.586Y-122.561
X342.963Y-104.991
X345.536Y-141.146
X346.913Y-123.576
X350.863Y-142.161
X356.636Y-101.982
X360.586Y-120.567
X361.963Y-102.997
X364.536Y-139.152
X365.914Y-121.582
X369.864Y-140.167
T2
G00X208.107Y-100.612
M15
G01X208.107Y-101.212
M16
G05
G00X208.107Y-104.542
M15
G01X208.107Y-105.642
M16
G05
G00X216.747Y-100.612
M15
G01X216.747Y-101.212
M16
G05
G00X216.747Y-104.542
M15
G01X216.747Y-105.642
M16
G05
T0
M30
