%TF.GenerationSoftware,KiCad,Pcbnew,7.0.2*%
%TF.CreationDate,2024-09-14T12:10:16+10:00*%
%TF.ProjectId,keyboard,6b657962-6f61-4726-942e-6b696361645f,v1.0.0*%
%TF.SameCoordinates,Original*%
%TF.FileFunction,Profile,NP*%
%FSLAX46Y46*%
G04 Gerber Fmt 4.6, Leading zero omitted, Abs format (unit mm)*
G04 Created by KiCad (PCBNEW 7.0.2) date 2024-09-14 12:10:16*
%MOMM*%
%LPD*%
G01*
G04 APERTURE LIST*
%TA.AperFunction,Profile*%
%ADD10C,0.500000*%
%TD*%
G04 APERTURE END LIST*
D10*
X46949916Y-138633167D02*
G75*
G03*
X48645672Y-141031950I1956284J-415833D01*
G01*
X113015326Y-92267712D02*
X59593868Y-87595131D01*
X272586365Y-176646913D02*
X290958229Y-174164972D01*
X367463697Y-89194470D02*
X377972218Y-138633173D01*
X59593869Y-87595114D02*
G75*
G03*
X57463307Y-89171701I-174269J-1992386D01*
G01*
X184994122Y-101691014D02*
X176328714Y-99849125D01*
X204461081Y-102346581D02*
G75*
G03*
X206461081Y-100346586I-81J2000081D01*
G01*
X376276489Y-141031938D02*
G75*
G03*
X377972218Y-138633173I-260689J1983038D01*
G01*
X49930543Y-124610564D02*
X57458466Y-89194470D01*
X269841152Y-100615717D02*
G75*
G03*
X275724363Y-100176198I1467948J19945517D01*
G01*
X170702528Y-99466022D02*
X155081010Y-100615704D01*
X323509191Y-164924178D02*
G75*
G03*
X324797996Y-162622988I-667391J1885278D01*
G01*
X290958229Y-174164972D02*
X307097665Y-170734429D01*
X102740070Y-150316129D02*
X101838590Y-154557261D01*
X100124116Y-162622977D02*
G75*
G03*
X101412985Y-164924142I1956284J-415823D01*
G01*
X48645672Y-141031950D02*
X101044343Y-147917352D01*
X100124167Y-162622988D02*
X101838590Y-154557261D01*
X133963934Y-174164972D02*
X117824498Y-170734429D01*
X191231472Y-102346586D02*
X204461081Y-102346586D01*
X149197800Y-100176199D02*
X117024203Y-92893786D01*
X117024204Y-92893781D02*
G75*
G03*
X113015326Y-92267712I-6623004J-29260819D01*
G01*
X149197803Y-100176187D02*
G75*
G03*
X155081010Y-100615703I4415297J19506587D01*
G01*
X220461081Y-102346586D02*
X233690691Y-102346586D01*
X272586364Y-176646908D02*
G75*
G03*
X262983006Y-179646651I4016236J-29729492D01*
G01*
X212461081Y-99346586D02*
X217461081Y-99346586D01*
X323877812Y-147917301D02*
G75*
G03*
X322182093Y-150316129I260488J-1982899D01*
G01*
X307097665Y-170734429D02*
X323509178Y-164924142D01*
X376276491Y-141031950D02*
X323877819Y-147917352D01*
X311906837Y-92267707D02*
G75*
G03*
X307897959Y-92893787I2614063J-29885993D01*
G01*
X175032419Y-186317990D02*
G75*
G03*
X188652130Y-189587803I13619781J26730390D01*
G01*
X175032415Y-186317998D02*
X161939157Y-179646650D01*
X184994123Y-101691008D02*
G75*
G03*
X191231472Y-102346586I6237377J29344408D01*
G01*
X102740084Y-150316132D02*
G75*
G03*
X101044343Y-147917352I-1956284J415832D01*
G01*
X239928041Y-101691014D02*
X248593449Y-99849125D01*
X254219635Y-99466022D02*
X269841153Y-100615704D01*
X367463697Y-89194470D02*
X367458857Y-89171701D01*
X57458466Y-89194470D02*
X57463306Y-89171701D01*
X212461081Y-99346586D02*
X207461081Y-99346586D01*
X236270032Y-189587818D02*
G75*
G03*
X249889747Y-186317998I-132J30000418D01*
G01*
X324797996Y-162622988D02*
X322182092Y-150316129D01*
X367458878Y-89171697D02*
G75*
G03*
X365328294Y-87595131I-1956278J-415803D01*
G01*
X207461081Y-99346581D02*
G75*
G03*
X206461081Y-100346586I-81J-999919D01*
G01*
X311906837Y-92267712D02*
X365328294Y-87595131D01*
X218461014Y-100346586D02*
G75*
G03*
X220461081Y-102346586I1999986J-14D01*
G01*
X233690691Y-102346576D02*
G75*
G03*
X239928041Y-101691013I109J29999376D01*
G01*
X188652130Y-189587803D02*
X236270032Y-189587803D01*
X152335798Y-176646913D02*
X133963934Y-174164972D01*
X49930543Y-124610564D02*
X46949945Y-138633173D01*
X117824498Y-170734429D02*
X101412985Y-164924142D01*
X176328716Y-99849116D02*
G75*
G03*
X170702528Y-99466023I-4158216J-19563184D01*
G01*
X275724363Y-100176199D02*
X307897959Y-92893786D01*
X254219635Y-99466022D02*
G75*
G03*
X248593449Y-99849126I-1467935J-19946278D01*
G01*
X161939154Y-179646656D02*
G75*
G03*
X152335798Y-176646914I-13619654J-26729944D01*
G01*
X249889747Y-186317998D02*
X262983006Y-179646650D01*
X218461014Y-100346586D02*
G75*
G03*
X217461081Y-99346586I-1000014J-14D01*
G01*
M02*
