%TF.GenerationSoftware,KiCad,Pcbnew,7.0.2*%
%TF.CreationDate,2024-09-11T18:36:16+10:00*%
%TF.ProjectId,keyboard,6b657962-6f61-4726-942e-6b696361645f,v1.0.0*%
%TF.SameCoordinates,Original*%
%TF.FileFunction,Drillmap*%
%TF.FilePolarity,Positive*%
%FSLAX45Y45*%
G04 Gerber Fmt 4.5, Leading zero omitted, Abs format (unit mm)*
G04 Created by KiCad (PCBNEW 7.0.2) date 2024-09-11 18:36:16*
%MOMM*%
%LPD*%
G01*
G04 APERTURE LIST*
%ADD10C,0.500000*%
%ADD11C,0.200000*%
%ADD12C,0.040000*%
%ADD13C,0.060000*%
%ADD14C,0.127000*%
G04 APERTURE END LIST*
D10*
X4694992Y-13863317D02*
G75*
G03*
X4864567Y-14103195I195628J-41583D01*
G01*
X11301533Y-9226771D02*
X5959387Y-8759513D01*
X27258636Y-17664691D02*
X29095823Y-17416497D01*
X36746370Y-8919447D02*
X37797222Y-13863317D01*
X5959387Y-8759511D02*
G75*
G03*
X5746331Y-8917170I-17427J-199239D01*
G01*
X18499412Y-10169101D02*
X17632871Y-9984913D01*
X20446108Y-10234658D02*
G75*
G03*
X20646108Y-10034659I-8J200008D01*
G01*
X37627649Y-14103194D02*
G75*
G03*
X37797222Y-13863317I-26069J198304D01*
G01*
X4993054Y-12461056D02*
X5745847Y-8919447D01*
X26984115Y-10061572D02*
G75*
G03*
X27572436Y-10017620I146795J1994552D01*
G01*
X17070253Y-9946602D02*
X15508101Y-10061570D01*
X32350919Y-16492418D02*
G75*
G03*
X32479800Y-16262299I-66739J188528D01*
G01*
X29095823Y-17416497D02*
X30709766Y-17073443D01*
X10274007Y-15031613D02*
X10183859Y-15455726D01*
X10012412Y-16262298D02*
G75*
G03*
X10141299Y-16492414I195628J-41582D01*
G01*
X4864567Y-14103195D02*
X10104434Y-14791735D01*
X10012417Y-16262299D02*
X10183859Y-15455726D01*
X13396393Y-17416497D02*
X11782450Y-17073443D01*
X19123147Y-10234659D02*
X20446108Y-10234659D01*
X14919780Y-10017620D02*
X11702420Y-9289379D01*
X11702420Y-9289378D02*
G75*
G03*
X11301533Y-9226771I-662300J-2926082D01*
G01*
X14919780Y-10017619D02*
G75*
G03*
X15508101Y-10061570I441530J1950659D01*
G01*
X22046108Y-10234659D02*
X23369069Y-10234659D01*
X27258636Y-17664691D02*
G75*
G03*
X26298301Y-17964665I401624J-2972949D01*
G01*
X21246108Y-9934659D02*
X21746108Y-9934659D01*
X32387781Y-14791730D02*
G75*
G03*
X32218209Y-15031613I26049J-198290D01*
G01*
X30709766Y-17073443D02*
X32350918Y-16492414D01*
X37627649Y-14103195D02*
X32387782Y-14791735D01*
X31190684Y-9226771D02*
G75*
G03*
X30789796Y-9289379I261406J-2988599D01*
G01*
X17503242Y-18631799D02*
G75*
G03*
X18865213Y-18958780I1361978J2673039D01*
G01*
X17503242Y-18631800D02*
X16193916Y-17964665D01*
X18499412Y-10169101D02*
G75*
G03*
X19123147Y-10234659I623738J2934441D01*
G01*
X10274008Y-15031613D02*
G75*
G03*
X10104434Y-14791735I-195628J41583D01*
G01*
X23992804Y-10169101D02*
X24859345Y-9984913D01*
X25421963Y-9946602D02*
X26984115Y-10061570D01*
X36746370Y-8919447D02*
X36745886Y-8917170D01*
X5745847Y-8919447D02*
X5746331Y-8917170D01*
X21246108Y-9934659D02*
X20746108Y-9934659D01*
X23627003Y-18958782D02*
G75*
G03*
X24988975Y-18631800I-13J3000042D01*
G01*
X32479800Y-16262299D02*
X32218209Y-15031613D01*
X36745888Y-8917170D02*
G75*
G03*
X36532829Y-8759513I-195628J-41580D01*
G01*
X20746108Y-9934658D02*
G75*
G03*
X20646108Y-10034659I-8J-99992D01*
G01*
X31190684Y-9226771D02*
X36532829Y-8759513D01*
X21846101Y-10034659D02*
G75*
G03*
X22046108Y-10234659I199999J-1D01*
G01*
X23369069Y-10234658D02*
G75*
G03*
X23992804Y-10169101I11J2999938D01*
G01*
X18865213Y-18958780D02*
X23627003Y-18958780D01*
X15233580Y-17664691D02*
X13396393Y-17416497D01*
X4993054Y-12461056D02*
X4694995Y-13863317D01*
X11782450Y-17073443D02*
X10141299Y-16492414D01*
X17632872Y-9984912D02*
G75*
G03*
X17070253Y-9946602I-415822J-1956318D01*
G01*
X27572436Y-10017620D02*
X30789796Y-9289379D01*
X25421963Y-9946602D02*
G75*
G03*
X24859345Y-9984913I-146794J-1994628D01*
G01*
X16193915Y-17964666D02*
G75*
G03*
X15233580Y-17664691I-1361965J-2672994D01*
G01*
X24988975Y-18631800D02*
X26298301Y-17964665D01*
X21846101Y-10034659D02*
G75*
G03*
X21746108Y-9934659I-100001J-1D01*
G01*
D11*
D12*
X19855000Y-14255000D02*
X19895000Y-14295000D01*
X19895000Y-14255000D02*
X19855000Y-14295000D01*
X19855000Y-14355000D02*
X19895000Y-14395000D01*
X19895000Y-14355000D02*
X19855000Y-14395000D01*
X19855000Y-14455000D02*
X19895000Y-14495000D01*
X19895000Y-14455000D02*
X19855000Y-14495000D01*
X19855000Y-14555000D02*
X19895000Y-14595000D01*
X19895000Y-14555000D02*
X19855000Y-14595000D01*
X19855000Y-14655000D02*
X19895000Y-14695000D01*
X19895000Y-14655000D02*
X19855000Y-14695000D01*
X19855000Y-14755000D02*
X19895000Y-14795000D01*
X19895000Y-14755000D02*
X19855000Y-14795000D01*
X19855000Y-14855000D02*
X19895000Y-14895000D01*
X19895000Y-14855000D02*
X19855000Y-14895000D01*
X20305000Y-14430000D02*
X20345000Y-14470000D01*
X20345000Y-14430000D02*
X20305000Y-14470000D01*
X20480000Y-14255000D02*
X20520000Y-14295000D01*
X20520000Y-14255000D02*
X20480000Y-14295000D01*
X20480000Y-15055000D02*
X20520000Y-15095000D01*
X20520000Y-15055000D02*
X20480000Y-15095000D01*
X20480000Y-15530000D02*
X20520000Y-15570000D01*
X20520000Y-15530000D02*
X20480000Y-15570000D01*
X20576608Y-11121250D02*
X20616608Y-11161250D01*
X20616608Y-11121250D02*
X20576608Y-11161250D01*
X20605000Y-13930000D02*
X20645000Y-13970000D01*
X20645000Y-13930000D02*
X20605000Y-13970000D01*
X20605000Y-15380000D02*
X20645000Y-15420000D01*
X20645000Y-15380000D02*
X20605000Y-15420000D01*
X20751608Y-11121250D02*
X20791608Y-11161250D01*
X20791608Y-11121250D02*
X20751608Y-11161250D01*
X20755000Y-13930000D02*
X20795000Y-13970000D01*
X20795000Y-13930000D02*
X20755000Y-13970000D01*
X20801608Y-10671250D02*
X20841608Y-10711250D01*
X20841608Y-10671250D02*
X20801608Y-10711250D01*
X20905000Y-13930000D02*
X20945000Y-13970000D01*
X20945000Y-13930000D02*
X20905000Y-13970000D01*
X20905000Y-15530000D02*
X20945000Y-15570000D01*
X20945000Y-15530000D02*
X20905000Y-15570000D01*
X20905000Y-15930000D02*
X20945000Y-15970000D01*
X20945000Y-15930000D02*
X20905000Y-15970000D01*
X21005000Y-14230000D02*
X21045000Y-14270000D01*
X21045000Y-14230000D02*
X21005000Y-14270000D01*
X21005000Y-14730000D02*
X21045000Y-14770000D01*
X21045000Y-14730000D02*
X21005000Y-14770000D01*
X21005000Y-14855000D02*
X21045000Y-14895000D01*
X21045000Y-14855000D02*
X21005000Y-14895000D01*
X21005000Y-14980000D02*
X21045000Y-15020000D01*
X21045000Y-14980000D02*
X21005000Y-15020000D01*
X21055000Y-15930000D02*
X21095000Y-15970000D01*
X21095000Y-15930000D02*
X21055000Y-15970000D01*
X21105000Y-14640000D02*
X21145000Y-14680000D01*
X21145000Y-14640000D02*
X21105000Y-14680000D01*
X21105000Y-15080000D02*
X21145000Y-15120000D01*
X21145000Y-15080000D02*
X21105000Y-15120000D01*
X21180000Y-15655000D02*
X21220000Y-15695000D01*
X21220000Y-15655000D02*
X21180000Y-15695000D01*
X21222716Y-10796250D02*
X21262716Y-10836250D01*
X21262716Y-10796250D02*
X21222716Y-10836250D01*
X21222716Y-11321250D02*
X21262716Y-11361250D01*
X21262716Y-11321250D02*
X21222716Y-11361250D01*
X21230000Y-14640000D02*
X21270000Y-14680000D01*
X21270000Y-14640000D02*
X21230000Y-14680000D01*
X21230000Y-15080000D02*
X21270000Y-15120000D01*
X21270000Y-15080000D02*
X21230000Y-15120000D01*
X21355000Y-14640000D02*
X21395000Y-14680000D01*
X21395000Y-14640000D02*
X21355000Y-14680000D01*
X21355000Y-15080000D02*
X21395000Y-15120000D01*
X21395000Y-15080000D02*
X21355000Y-15120000D01*
X21450000Y-14730000D02*
X21490000Y-14770000D01*
X21490000Y-14730000D02*
X21450000Y-14770000D01*
X21450000Y-14855000D02*
X21490000Y-14895000D01*
X21490000Y-14855000D02*
X21450000Y-14895000D01*
X21450000Y-14980000D02*
X21490000Y-15020000D01*
X21490000Y-14980000D02*
X21450000Y-15020000D01*
X21455000Y-13555000D02*
X21495000Y-13595000D01*
X21495000Y-13555000D02*
X21455000Y-13595000D01*
X21480000Y-15553125D02*
X21520000Y-15593125D01*
X21520000Y-15553125D02*
X21480000Y-15593125D01*
X21555000Y-10730000D02*
X21595000Y-10770000D01*
X21595000Y-10730000D02*
X21555000Y-10770000D01*
X21555000Y-12055000D02*
X21595000Y-12095000D01*
X21595000Y-12055000D02*
X21555000Y-12095000D01*
X21605000Y-13555000D02*
X21645000Y-13595000D01*
X21645000Y-13555000D02*
X21605000Y-13595000D01*
X21651608Y-10671250D02*
X21691608Y-10711250D01*
X21691608Y-10671250D02*
X21651608Y-10711250D01*
X21655000Y-12930000D02*
X21695000Y-12970000D01*
X21695000Y-12930000D02*
X21655000Y-12970000D01*
X21701608Y-11121250D02*
X21741608Y-11161250D01*
X21741608Y-11121250D02*
X21701608Y-11161250D01*
X21730000Y-13780000D02*
X21770000Y-13820000D01*
X21770000Y-13780000D02*
X21730000Y-13820000D01*
X21755000Y-11880000D02*
X21795000Y-11920000D01*
X21795000Y-11880000D02*
X21755000Y-11920000D01*
X21830000Y-14355000D02*
X21870000Y-14395000D01*
X21870000Y-14355000D02*
X21830000Y-14395000D01*
X21855000Y-13655000D02*
X21895000Y-13695000D01*
X21895000Y-13655000D02*
X21855000Y-13695000D01*
X21876608Y-11121250D02*
X21916608Y-11161250D01*
X21916608Y-11121250D02*
X21876608Y-11161250D01*
X21905000Y-15878125D02*
X21945000Y-15918125D01*
X21945000Y-15878125D02*
X21905000Y-15918125D01*
X21930000Y-15428125D02*
X21970000Y-15468125D01*
X21970000Y-15428125D02*
X21930000Y-15468125D01*
X21930000Y-16078125D02*
X21970000Y-16118125D01*
X21970000Y-16078125D02*
X21930000Y-16118125D01*
X21980000Y-14355000D02*
X22020000Y-14395000D01*
X22020000Y-14355000D02*
X21980000Y-14395000D01*
X22205000Y-11680000D02*
X22245000Y-11720000D01*
X22245000Y-11680000D02*
X22205000Y-11720000D01*
X22205000Y-14855000D02*
X22245000Y-14895000D01*
X22245000Y-14855000D02*
X22205000Y-14895000D01*
X22205000Y-14955000D02*
X22245000Y-14995000D01*
X22245000Y-14955000D02*
X22205000Y-14995000D01*
X22330000Y-14180000D02*
X22370000Y-14220000D01*
X22370000Y-14180000D02*
X22330000Y-14220000D01*
X22330000Y-14280000D02*
X22370000Y-14320000D01*
X22370000Y-14280000D02*
X22330000Y-14320000D01*
X22330000Y-14380000D02*
X22370000Y-14420000D01*
X22370000Y-14380000D02*
X22330000Y-14420000D01*
X22330000Y-14480000D02*
X22370000Y-14520000D01*
X22370000Y-14480000D02*
X22330000Y-14520000D01*
X22330000Y-14580000D02*
X22370000Y-14620000D01*
X22370000Y-14580000D02*
X22330000Y-14620000D01*
X22330000Y-14680000D02*
X22370000Y-14720000D01*
X22370000Y-14680000D02*
X22330000Y-14720000D01*
X22330000Y-14780000D02*
X22370000Y-14820000D01*
X22370000Y-14780000D02*
X22330000Y-14820000D01*
X22380000Y-13305000D02*
X22420000Y-13345000D01*
X22420000Y-13305000D02*
X22380000Y-13345000D01*
X22530000Y-11830000D02*
X22570000Y-11870000D01*
X22570000Y-11830000D02*
X22530000Y-11870000D01*
X22780000Y-12105000D02*
X22820000Y-12145000D01*
X22820000Y-12105000D02*
X22780000Y-12145000D01*
X22955000Y-13905000D02*
X22995000Y-13945000D01*
X22995000Y-13905000D02*
X22955000Y-13945000D01*
X23055000Y-17355000D02*
X23095000Y-17395000D01*
X23095000Y-17355000D02*
X23055000Y-17395000D01*
X23055000Y-17955000D02*
X23095000Y-17995000D01*
X23095000Y-17955000D02*
X23055000Y-17995000D01*
X23280000Y-11580000D02*
X23320000Y-11620000D01*
X23320000Y-11580000D02*
X23280000Y-11620000D01*
X23580000Y-15655000D02*
X23620000Y-15695000D01*
X23620000Y-15655000D02*
X23580000Y-15695000D01*
X23680000Y-11530000D02*
X23720000Y-11570000D01*
X23720000Y-11530000D02*
X23680000Y-11570000D01*
X23805000Y-15155000D02*
X23845000Y-15195000D01*
X23845000Y-15155000D02*
X23805000Y-15195000D01*
X24055000Y-15155000D02*
X24095000Y-15195000D01*
X24095000Y-15155000D02*
X24055000Y-15195000D01*
X24105000Y-16155000D02*
X24145000Y-16195000D01*
X24145000Y-16155000D02*
X24105000Y-16195000D01*
D13*
X20840716Y-10091250D02*
G75*
G03*
X20840716Y-10091250I-30000J0D01*
G01*
D11*
X20780716Y-10061250D02*
X20780716Y-10121250D01*
X20780716Y-10121250D02*
G75*
G03*
X20840716Y-10121250I30000J0D01*
G01*
X20840716Y-10121250D02*
X20840716Y-10061250D01*
X20840716Y-10061250D02*
G75*
G03*
X20780716Y-10061250I-30000J0D01*
G01*
D13*
X20840716Y-10509250D02*
G75*
G03*
X20840716Y-10509250I-30000J0D01*
G01*
D11*
X20780716Y-10454250D02*
X20780716Y-10564250D01*
X20780716Y-10564250D02*
G75*
G03*
X20840716Y-10564250I30000J0D01*
G01*
X20840716Y-10564250D02*
X20840716Y-10454250D01*
X20840716Y-10454250D02*
G75*
G03*
X20780716Y-10454250I-30000J0D01*
G01*
D13*
X21704716Y-10091250D02*
G75*
G03*
X21704716Y-10091250I-30000J0D01*
G01*
D11*
X21644716Y-10061250D02*
X21644716Y-10121250D01*
X21644716Y-10121250D02*
G75*
G03*
X21704716Y-10121250I30000J0D01*
G01*
X21704716Y-10121250D02*
X21704716Y-10061250D01*
X21704716Y-10061250D02*
G75*
G03*
X21644716Y-10061250I-30000J0D01*
G01*
D13*
X21704716Y-10509250D02*
G75*
G03*
X21704716Y-10509250I-30000J0D01*
G01*
D11*
X21644716Y-10454250D02*
X21644716Y-10564250D01*
X21644716Y-10564250D02*
G75*
G03*
X21704716Y-10564250I30000J0D01*
G01*
X21704716Y-10564250D02*
X21704716Y-10454250D01*
X21704716Y-10454250D02*
G75*
G03*
X21644716Y-10454250I-30000J0D01*
G01*
D14*
X5060419Y-13643795D02*
X5060419Y-13770795D01*
X4996919Y-13707295D02*
X5123919Y-13707295D01*
X5455451Y-11785315D02*
X5455451Y-11912315D01*
X5391951Y-11848815D02*
X5518951Y-11848815D01*
X5505831Y-13953162D02*
X5505831Y-14080162D01*
X5442331Y-14016662D02*
X5569331Y-14016662D01*
X5850483Y-9926835D02*
X5850483Y-10053835D01*
X5786983Y-9990335D02*
X5913983Y-9990335D01*
X5900863Y-12094682D02*
X5900863Y-12221682D01*
X5837363Y-12158182D02*
X5964363Y-12158182D01*
X6295895Y-10236202D02*
X6295895Y-10363202D01*
X6232395Y-10299702D02*
X6359395Y-10299702D01*
X6960481Y-13843198D02*
X6960481Y-13970198D01*
X6896981Y-13906698D02*
X7023981Y-13906698D01*
X7355514Y-11984718D02*
X7355514Y-12111718D01*
X7292014Y-12048218D02*
X7419014Y-12048218D01*
X7405894Y-14152565D02*
X7405894Y-14279565D01*
X7342394Y-14216065D02*
X7469394Y-14216065D01*
X7750546Y-10126237D02*
X7750546Y-10253237D01*
X7687046Y-10189737D02*
X7814046Y-10189737D01*
X7800926Y-12294085D02*
X7800926Y-12421085D01*
X7737426Y-12357585D02*
X7864426Y-12357585D01*
X8195958Y-10435604D02*
X8195958Y-10562604D01*
X8132458Y-10499104D02*
X8259458Y-10499104D01*
X8870940Y-13993693D02*
X8870940Y-14120693D01*
X8807440Y-14057193D02*
X8934440Y-14057193D01*
X9265972Y-12135213D02*
X9265972Y-12262213D01*
X9202472Y-12198713D02*
X9329472Y-12198713D01*
X9316352Y-14303060D02*
X9316352Y-14430060D01*
X9252852Y-14366560D02*
X9379852Y-14366560D01*
X9661004Y-10276733D02*
X9661004Y-10403733D01*
X9597504Y-10340233D02*
X9724504Y-10340233D01*
X9711384Y-12444580D02*
X9711384Y-12571580D01*
X9647884Y-12508080D02*
X9774884Y-12508080D01*
X10106417Y-10586100D02*
X10106417Y-10713100D01*
X10042917Y-10649600D02*
X10169917Y-10649600D01*
X10386366Y-16002669D02*
X10386366Y-16129669D01*
X10322866Y-16066169D02*
X10449866Y-16066169D01*
X10781398Y-14144189D02*
X10781398Y-14271189D01*
X10717898Y-14207689D02*
X10844898Y-14207689D01*
X10831778Y-16312036D02*
X10831778Y-16439036D01*
X10768278Y-16375536D02*
X10895278Y-16375536D01*
X11176430Y-12285708D02*
X11176430Y-12412708D01*
X11112930Y-12349208D02*
X11239930Y-12349208D01*
X11226810Y-14453556D02*
X11226810Y-14580556D01*
X11163311Y-14517056D02*
X11290310Y-14517056D01*
X11571463Y-10427228D02*
X11571463Y-10554228D01*
X11507963Y-10490728D02*
X11634963Y-10490728D01*
X11621843Y-12595075D02*
X11621843Y-12722075D01*
X11558343Y-12658575D02*
X11685343Y-12658575D01*
X12016875Y-10736595D02*
X12016875Y-10863595D01*
X11953375Y-10800095D02*
X12080375Y-10800095D01*
X12192868Y-16642238D02*
X12192868Y-16769238D01*
X12129368Y-16705738D02*
X12256368Y-16705738D01*
X12587901Y-14783758D02*
X12587901Y-14910758D01*
X12524401Y-14847258D02*
X12651401Y-14847258D01*
X12638281Y-16951605D02*
X12638281Y-17078605D01*
X12574781Y-17015105D02*
X12701781Y-17015105D01*
X12982933Y-12925277D02*
X12982933Y-13052277D01*
X12919433Y-12988777D02*
X13046433Y-12988777D01*
X13033313Y-15093125D02*
X13033313Y-15220125D01*
X12969813Y-15156625D02*
X13096813Y-15156625D01*
X13377965Y-11066797D02*
X13377965Y-11193797D01*
X13314465Y-11130297D02*
X13441465Y-11130297D01*
X13428345Y-13234644D02*
X13428345Y-13361644D01*
X13364845Y-13298144D02*
X13491845Y-13298144D01*
X13823377Y-11376164D02*
X13823377Y-11503164D01*
X13759877Y-11439664D02*
X13886877Y-11439664D01*
X14092931Y-16841641D02*
X14092931Y-16968641D01*
X14029431Y-16905141D02*
X14156431Y-16905141D01*
X14487963Y-14983161D02*
X14487963Y-15110161D01*
X14424463Y-15046661D02*
X14551463Y-15046661D01*
X14538344Y-17151008D02*
X14538344Y-17278008D01*
X14474844Y-17214508D02*
X14601844Y-17214508D01*
X14882996Y-13124680D02*
X14882996Y-13251680D01*
X14819496Y-13188180D02*
X14946496Y-13188180D01*
X14933376Y-15292528D02*
X14933376Y-15419528D01*
X14869876Y-15356028D02*
X14996876Y-15356028D01*
X15278028Y-11266200D02*
X15278028Y-11393200D01*
X15214528Y-11329700D02*
X15341528Y-11329700D01*
X15328408Y-13434047D02*
X15328408Y-13561047D01*
X15264908Y-13497547D02*
X15391908Y-13497547D01*
X15723440Y-11575567D02*
X15723440Y-11702567D01*
X15659940Y-11639067D02*
X15786940Y-11639067D01*
X16471191Y-14791304D02*
X16471191Y-14918304D01*
X16407691Y-14854804D02*
X16534691Y-14854804D01*
X16698640Y-17658900D02*
X16698640Y-17785900D01*
X16635140Y-17722400D02*
X16762140Y-17722400D01*
X16866223Y-12932824D02*
X16866223Y-13059824D01*
X16802723Y-12996324D02*
X16929723Y-12996324D01*
X16916603Y-15100671D02*
X16916603Y-15227671D01*
X16853103Y-15164171D02*
X16980103Y-15164171D01*
X17048806Y-18073007D02*
X17048806Y-18200007D01*
X16985306Y-18136507D02*
X17112306Y-18136507D01*
X17261255Y-11074343D02*
X17261255Y-11201343D01*
X17197755Y-11137843D02*
X17324755Y-11137843D01*
X17311636Y-13242191D02*
X17311636Y-13369191D01*
X17248136Y-13305691D02*
X17375136Y-13305691D01*
X17706668Y-11383710D02*
X17706668Y-11510710D01*
X17643168Y-11447210D02*
X17770168Y-11447210D01*
X24252813Y-11282255D02*
X24252813Y-11409255D01*
X24189313Y-11345755D02*
X24316313Y-11345755D01*
X24647845Y-13140736D02*
X24647845Y-13267736D01*
X24584345Y-13204236D02*
X24711345Y-13204236D01*
X24785549Y-11383710D02*
X24785549Y-11510710D01*
X24722049Y-11447210D02*
X24849049Y-11447210D01*
X24902569Y-18112890D02*
X24902569Y-18239890D01*
X24839069Y-18176390D02*
X24966069Y-18176390D01*
X25042878Y-14999216D02*
X25042878Y-15126216D01*
X24979378Y-15062716D02*
X25106378Y-15062716D01*
X25180581Y-13242191D02*
X25180581Y-13369191D01*
X25117081Y-13305691D02*
X25244081Y-13305691D01*
X25443410Y-18073007D02*
X25443410Y-18200007D01*
X25379910Y-18136507D02*
X25506910Y-18136507D01*
X25575613Y-15100671D02*
X25575613Y-15227671D01*
X25512113Y-15164171D02*
X25639113Y-15164171D01*
X26236041Y-11474111D02*
X26236041Y-11601111D01*
X26172541Y-11537611D02*
X26299541Y-11537611D01*
X26631073Y-13332592D02*
X26631073Y-13459592D01*
X26567573Y-13396092D02*
X26694573Y-13396092D01*
X26768776Y-11575567D02*
X26768776Y-11702567D01*
X26705276Y-11639067D02*
X26832276Y-11639067D01*
X27026105Y-15191072D02*
X27026105Y-15318072D01*
X26962605Y-15254572D02*
X27089605Y-15254572D01*
X27163808Y-13434047D02*
X27163808Y-13561047D01*
X27100308Y-13497547D02*
X27227308Y-13497547D01*
X27421137Y-17049553D02*
X27421137Y-17176553D01*
X27357637Y-17113053D02*
X27484637Y-17113053D01*
X27558840Y-15292528D02*
X27558840Y-15419528D01*
X27495340Y-15356028D02*
X27622340Y-15356028D01*
X27953873Y-17151008D02*
X27953873Y-17278008D01*
X27890373Y-17214508D02*
X28017373Y-17214508D01*
X28136103Y-11274709D02*
X28136103Y-11401709D01*
X28072603Y-11338209D02*
X28199603Y-11338209D01*
X28531136Y-13133189D02*
X28531136Y-13260189D01*
X28467636Y-13196689D02*
X28594636Y-13196689D01*
X28668839Y-11376164D02*
X28668839Y-11503164D01*
X28605339Y-11439664D02*
X28732339Y-11439664D01*
X28926168Y-14991670D02*
X28926168Y-15118670D01*
X28862668Y-15055170D02*
X28989668Y-15055170D01*
X29063871Y-13234644D02*
X29063871Y-13361644D01*
X29000371Y-13298144D02*
X29127371Y-13298144D01*
X29321200Y-16850150D02*
X29321200Y-16977150D01*
X29257700Y-16913650D02*
X29384700Y-16913650D01*
X29458903Y-15093125D02*
X29458903Y-15220125D01*
X29395403Y-15156625D02*
X29522403Y-15156625D01*
X29853935Y-16951605D02*
X29853935Y-17078605D01*
X29790435Y-17015105D02*
X29917435Y-17015105D01*
X29942606Y-10635140D02*
X29942606Y-10762140D01*
X29879106Y-10698640D02*
X30006106Y-10698640D01*
X30337638Y-12493620D02*
X30337638Y-12620620D01*
X30274138Y-12557120D02*
X30401138Y-12557120D01*
X30475341Y-10736595D02*
X30475341Y-10863595D01*
X30411841Y-10800095D02*
X30538841Y-10800095D01*
X30732670Y-14352101D02*
X30732670Y-14479101D01*
X30669170Y-14415601D02*
X30796170Y-14415601D01*
X30870373Y-12595075D02*
X30870373Y-12722075D01*
X30806873Y-12658575D02*
X30933873Y-12658575D01*
X31127703Y-16210581D02*
X31127703Y-16337581D01*
X31064203Y-16274081D02*
X31191203Y-16274081D01*
X31265406Y-14453556D02*
X31265406Y-14580556D01*
X31201906Y-14517056D02*
X31328906Y-14517056D01*
X31660438Y-16312036D02*
X31660438Y-16439036D01*
X31596938Y-16375536D02*
X31723938Y-16375536D01*
X31853064Y-10484644D02*
X31853064Y-10611644D01*
X31789564Y-10548144D02*
X31916564Y-10548144D01*
X32248097Y-12343125D02*
X32248097Y-12470125D01*
X32184597Y-12406625D02*
X32311597Y-12406625D01*
X32385800Y-10586100D02*
X32385800Y-10713100D01*
X32322300Y-10649600D02*
X32449300Y-10649600D01*
X32643129Y-14201605D02*
X32643129Y-14328605D01*
X32579629Y-14265105D02*
X32706629Y-14265105D01*
X32780832Y-12444580D02*
X32780832Y-12571580D01*
X32717332Y-12508080D02*
X32844332Y-12508080D01*
X33175864Y-14303060D02*
X33175864Y-14430060D01*
X33112364Y-14366560D02*
X33239364Y-14366560D01*
X33763523Y-10334149D02*
X33763523Y-10461149D01*
X33700023Y-10397649D02*
X33827023Y-10397649D01*
X34158555Y-12192629D02*
X34158555Y-12319629D01*
X34095055Y-12256129D02*
X34222055Y-12256129D01*
X34296258Y-10435604D02*
X34296258Y-10562604D01*
X34232758Y-10499104D02*
X34359758Y-10499104D01*
X34553587Y-14051110D02*
X34553587Y-14178110D01*
X34490087Y-14114610D02*
X34617087Y-14114610D01*
X34691290Y-12294085D02*
X34691290Y-12421085D01*
X34627790Y-12357585D02*
X34754790Y-12357585D01*
X35086323Y-14152565D02*
X35086323Y-14279565D01*
X35022823Y-14216065D02*
X35149823Y-14216065D01*
X35663586Y-10134746D02*
X35663586Y-10261746D01*
X35600086Y-10198246D02*
X35727086Y-10198246D01*
X36058618Y-11993227D02*
X36058618Y-12120227D01*
X35995118Y-12056727D02*
X36122118Y-12056727D01*
X36196321Y-10236202D02*
X36196321Y-10363202D01*
X36132821Y-10299702D02*
X36259821Y-10299702D01*
X36453650Y-13851707D02*
X36453650Y-13978707D01*
X36390150Y-13915207D02*
X36517150Y-13915207D01*
X36591353Y-12094682D02*
X36591353Y-12221682D01*
X36527853Y-12158182D02*
X36654853Y-12158182D01*
X36986385Y-13953162D02*
X36986385Y-14080162D01*
X36922885Y-14016662D02*
X37049885Y-14016662D01*
D11*
X4913240Y-19296304D02*
X4913240Y-19096304D01*
X4913240Y-19096304D02*
X4960859Y-19096304D01*
X4960859Y-19096304D02*
X4989430Y-19105828D01*
X4989430Y-19105828D02*
X5008478Y-19124876D01*
X5008478Y-19124876D02*
X5018002Y-19143923D01*
X5018002Y-19143923D02*
X5027526Y-19182018D01*
X5027526Y-19182018D02*
X5027526Y-19210590D01*
X5027526Y-19210590D02*
X5018002Y-19248685D01*
X5018002Y-19248685D02*
X5008478Y-19267733D01*
X5008478Y-19267733D02*
X4989430Y-19286780D01*
X4989430Y-19286780D02*
X4960859Y-19296304D01*
X4960859Y-19296304D02*
X4913240Y-19296304D01*
X5113240Y-19296304D02*
X5113240Y-19162971D01*
X5113240Y-19201066D02*
X5122764Y-19182018D01*
X5122764Y-19182018D02*
X5132288Y-19172495D01*
X5132288Y-19172495D02*
X5151335Y-19162971D01*
X5151335Y-19162971D02*
X5170383Y-19162971D01*
X5237049Y-19296304D02*
X5237049Y-19162971D01*
X5237049Y-19096304D02*
X5227526Y-19105828D01*
X5227526Y-19105828D02*
X5237049Y-19115352D01*
X5237049Y-19115352D02*
X5246573Y-19105828D01*
X5246573Y-19105828D02*
X5237049Y-19096304D01*
X5237049Y-19096304D02*
X5237049Y-19115352D01*
X5360859Y-19296304D02*
X5341811Y-19286780D01*
X5341811Y-19286780D02*
X5332288Y-19267733D01*
X5332288Y-19267733D02*
X5332288Y-19096304D01*
X5465621Y-19296304D02*
X5446573Y-19286780D01*
X5446573Y-19286780D02*
X5437049Y-19267733D01*
X5437049Y-19267733D02*
X5437049Y-19096304D01*
X5694192Y-19296304D02*
X5694192Y-19096304D01*
X5694192Y-19096304D02*
X5760859Y-19239161D01*
X5760859Y-19239161D02*
X5827526Y-19096304D01*
X5827526Y-19096304D02*
X5827526Y-19296304D01*
X6008478Y-19296304D02*
X6008478Y-19191542D01*
X6008478Y-19191542D02*
X5998954Y-19172495D01*
X5998954Y-19172495D02*
X5979907Y-19162971D01*
X5979907Y-19162971D02*
X5941811Y-19162971D01*
X5941811Y-19162971D02*
X5922764Y-19172495D01*
X6008478Y-19286780D02*
X5989430Y-19296304D01*
X5989430Y-19296304D02*
X5941811Y-19296304D01*
X5941811Y-19296304D02*
X5922764Y-19286780D01*
X5922764Y-19286780D02*
X5913240Y-19267733D01*
X5913240Y-19267733D02*
X5913240Y-19248685D01*
X5913240Y-19248685D02*
X5922764Y-19229637D01*
X5922764Y-19229637D02*
X5941811Y-19220114D01*
X5941811Y-19220114D02*
X5989430Y-19220114D01*
X5989430Y-19220114D02*
X6008478Y-19210590D01*
X6103716Y-19162971D02*
X6103716Y-19362971D01*
X6103716Y-19172495D02*
X6122764Y-19162971D01*
X6122764Y-19162971D02*
X6160859Y-19162971D01*
X6160859Y-19162971D02*
X6179907Y-19172495D01*
X6179907Y-19172495D02*
X6189430Y-19182018D01*
X6189430Y-19182018D02*
X6198954Y-19201066D01*
X6198954Y-19201066D02*
X6198954Y-19258209D01*
X6198954Y-19258209D02*
X6189430Y-19277256D01*
X6189430Y-19277256D02*
X6179907Y-19286780D01*
X6179907Y-19286780D02*
X6160859Y-19296304D01*
X6160859Y-19296304D02*
X6122764Y-19296304D01*
X6122764Y-19296304D02*
X6103716Y-19286780D01*
X6284668Y-19277256D02*
X6294192Y-19286780D01*
X6294192Y-19286780D02*
X6284668Y-19296304D01*
X6284668Y-19296304D02*
X6275145Y-19286780D01*
X6275145Y-19286780D02*
X6284668Y-19277256D01*
X6284668Y-19277256D02*
X6284668Y-19296304D01*
X6284668Y-19172495D02*
X6294192Y-19182018D01*
X6294192Y-19182018D02*
X6284668Y-19191542D01*
X6284668Y-19191542D02*
X6275145Y-19182018D01*
X6275145Y-19182018D02*
X6284668Y-19172495D01*
X6284668Y-19172495D02*
X6284668Y-19191542D01*
D12*
X4625621Y-19603780D02*
X4665621Y-19643780D01*
X4665621Y-19603780D02*
X4625621Y-19643780D01*
D11*
X4951335Y-19516304D02*
X4970383Y-19516304D01*
X4970383Y-19516304D02*
X4989430Y-19525828D01*
X4989430Y-19525828D02*
X4998954Y-19535352D01*
X4998954Y-19535352D02*
X5008478Y-19554399D01*
X5008478Y-19554399D02*
X5018002Y-19592495D01*
X5018002Y-19592495D02*
X5018002Y-19640114D01*
X5018002Y-19640114D02*
X5008478Y-19678209D01*
X5008478Y-19678209D02*
X4998954Y-19697256D01*
X4998954Y-19697256D02*
X4989430Y-19706780D01*
X4989430Y-19706780D02*
X4970383Y-19716304D01*
X4970383Y-19716304D02*
X4951335Y-19716304D01*
X4951335Y-19716304D02*
X4932288Y-19706780D01*
X4932288Y-19706780D02*
X4922764Y-19697256D01*
X4922764Y-19697256D02*
X4913240Y-19678209D01*
X4913240Y-19678209D02*
X4903716Y-19640114D01*
X4903716Y-19640114D02*
X4903716Y-19592495D01*
X4903716Y-19592495D02*
X4913240Y-19554399D01*
X4913240Y-19554399D02*
X4922764Y-19535352D01*
X4922764Y-19535352D02*
X4932288Y-19525828D01*
X4932288Y-19525828D02*
X4951335Y-19516304D01*
X5103716Y-19697256D02*
X5113240Y-19706780D01*
X5113240Y-19706780D02*
X5103716Y-19716304D01*
X5103716Y-19716304D02*
X5094192Y-19706780D01*
X5094192Y-19706780D02*
X5103716Y-19697256D01*
X5103716Y-19697256D02*
X5103716Y-19716304D01*
X5284669Y-19582971D02*
X5284669Y-19716304D01*
X5237049Y-19506780D02*
X5189430Y-19649637D01*
X5189430Y-19649637D02*
X5313240Y-19649637D01*
X5427526Y-19516304D02*
X5446573Y-19516304D01*
X5446573Y-19516304D02*
X5465621Y-19525828D01*
X5465621Y-19525828D02*
X5475145Y-19535352D01*
X5475145Y-19535352D02*
X5484669Y-19554399D01*
X5484669Y-19554399D02*
X5494192Y-19592495D01*
X5494192Y-19592495D02*
X5494192Y-19640114D01*
X5494192Y-19640114D02*
X5484669Y-19678209D01*
X5484669Y-19678209D02*
X5475145Y-19697256D01*
X5475145Y-19697256D02*
X5465621Y-19706780D01*
X5465621Y-19706780D02*
X5446573Y-19716304D01*
X5446573Y-19716304D02*
X5427526Y-19716304D01*
X5427526Y-19716304D02*
X5408478Y-19706780D01*
X5408478Y-19706780D02*
X5398954Y-19697256D01*
X5398954Y-19697256D02*
X5389430Y-19678209D01*
X5389430Y-19678209D02*
X5379907Y-19640114D01*
X5379907Y-19640114D02*
X5379907Y-19592495D01*
X5379907Y-19592495D02*
X5389430Y-19554399D01*
X5389430Y-19554399D02*
X5398954Y-19535352D01*
X5398954Y-19535352D02*
X5408478Y-19525828D01*
X5408478Y-19525828D02*
X5427526Y-19516304D01*
X5618002Y-19516304D02*
X5637049Y-19516304D01*
X5637049Y-19516304D02*
X5656097Y-19525828D01*
X5656097Y-19525828D02*
X5665621Y-19535352D01*
X5665621Y-19535352D02*
X5675145Y-19554399D01*
X5675145Y-19554399D02*
X5684668Y-19592495D01*
X5684668Y-19592495D02*
X5684668Y-19640114D01*
X5684668Y-19640114D02*
X5675145Y-19678209D01*
X5675145Y-19678209D02*
X5665621Y-19697256D01*
X5665621Y-19697256D02*
X5656097Y-19706780D01*
X5656097Y-19706780D02*
X5637049Y-19716304D01*
X5637049Y-19716304D02*
X5618002Y-19716304D01*
X5618002Y-19716304D02*
X5598954Y-19706780D01*
X5598954Y-19706780D02*
X5589430Y-19697256D01*
X5589430Y-19697256D02*
X5579907Y-19678209D01*
X5579907Y-19678209D02*
X5570383Y-19640114D01*
X5570383Y-19640114D02*
X5570383Y-19592495D01*
X5570383Y-19592495D02*
X5579907Y-19554399D01*
X5579907Y-19554399D02*
X5589430Y-19535352D01*
X5589430Y-19535352D02*
X5598954Y-19525828D01*
X5598954Y-19525828D02*
X5618002Y-19516304D01*
X5770383Y-19716304D02*
X5770383Y-19582971D01*
X5770383Y-19602018D02*
X5779907Y-19592495D01*
X5779907Y-19592495D02*
X5798954Y-19582971D01*
X5798954Y-19582971D02*
X5827526Y-19582971D01*
X5827526Y-19582971D02*
X5846573Y-19592495D01*
X5846573Y-19592495D02*
X5856097Y-19611542D01*
X5856097Y-19611542D02*
X5856097Y-19716304D01*
X5856097Y-19611542D02*
X5865621Y-19592495D01*
X5865621Y-19592495D02*
X5884668Y-19582971D01*
X5884668Y-19582971D02*
X5913240Y-19582971D01*
X5913240Y-19582971D02*
X5932288Y-19592495D01*
X5932288Y-19592495D02*
X5941811Y-19611542D01*
X5941811Y-19611542D02*
X5941811Y-19716304D01*
X6037049Y-19716304D02*
X6037049Y-19582971D01*
X6037049Y-19602018D02*
X6046573Y-19592495D01*
X6046573Y-19592495D02*
X6065621Y-19582971D01*
X6065621Y-19582971D02*
X6094192Y-19582971D01*
X6094192Y-19582971D02*
X6113240Y-19592495D01*
X6113240Y-19592495D02*
X6122764Y-19611542D01*
X6122764Y-19611542D02*
X6122764Y-19716304D01*
X6122764Y-19611542D02*
X6132288Y-19592495D01*
X6132288Y-19592495D02*
X6151335Y-19582971D01*
X6151335Y-19582971D02*
X6179907Y-19582971D01*
X6179907Y-19582971D02*
X6198954Y-19592495D01*
X6198954Y-19592495D02*
X6208478Y-19611542D01*
X6208478Y-19611542D02*
X6208478Y-19716304D01*
X6598954Y-19506780D02*
X6427526Y-19763923D01*
X6856097Y-19516304D02*
X6875145Y-19516304D01*
X6875145Y-19516304D02*
X6894192Y-19525828D01*
X6894192Y-19525828D02*
X6903716Y-19535352D01*
X6903716Y-19535352D02*
X6913240Y-19554399D01*
X6913240Y-19554399D02*
X6922764Y-19592495D01*
X6922764Y-19592495D02*
X6922764Y-19640114D01*
X6922764Y-19640114D02*
X6913240Y-19678209D01*
X6913240Y-19678209D02*
X6903716Y-19697256D01*
X6903716Y-19697256D02*
X6894192Y-19706780D01*
X6894192Y-19706780D02*
X6875145Y-19716304D01*
X6875145Y-19716304D02*
X6856097Y-19716304D01*
X6856097Y-19716304D02*
X6837050Y-19706780D01*
X6837050Y-19706780D02*
X6827526Y-19697256D01*
X6827526Y-19697256D02*
X6818002Y-19678209D01*
X6818002Y-19678209D02*
X6808478Y-19640114D01*
X6808478Y-19640114D02*
X6808478Y-19592495D01*
X6808478Y-19592495D02*
X6818002Y-19554399D01*
X6818002Y-19554399D02*
X6827526Y-19535352D01*
X6827526Y-19535352D02*
X6837050Y-19525828D01*
X6837050Y-19525828D02*
X6856097Y-19516304D01*
X7008478Y-19697256D02*
X7018002Y-19706780D01*
X7018002Y-19706780D02*
X7008478Y-19716304D01*
X7008478Y-19716304D02*
X6998954Y-19706780D01*
X6998954Y-19706780D02*
X7008478Y-19697256D01*
X7008478Y-19697256D02*
X7008478Y-19716304D01*
X7141811Y-19516304D02*
X7160859Y-19516304D01*
X7160859Y-19516304D02*
X7179907Y-19525828D01*
X7179907Y-19525828D02*
X7189431Y-19535352D01*
X7189431Y-19535352D02*
X7198954Y-19554399D01*
X7198954Y-19554399D02*
X7208478Y-19592495D01*
X7208478Y-19592495D02*
X7208478Y-19640114D01*
X7208478Y-19640114D02*
X7198954Y-19678209D01*
X7198954Y-19678209D02*
X7189431Y-19697256D01*
X7189431Y-19697256D02*
X7179907Y-19706780D01*
X7179907Y-19706780D02*
X7160859Y-19716304D01*
X7160859Y-19716304D02*
X7141811Y-19716304D01*
X7141811Y-19716304D02*
X7122764Y-19706780D01*
X7122764Y-19706780D02*
X7113240Y-19697256D01*
X7113240Y-19697256D02*
X7103716Y-19678209D01*
X7103716Y-19678209D02*
X7094192Y-19640114D01*
X7094192Y-19640114D02*
X7094192Y-19592495D01*
X7094192Y-19592495D02*
X7103716Y-19554399D01*
X7103716Y-19554399D02*
X7113240Y-19535352D01*
X7113240Y-19535352D02*
X7122764Y-19525828D01*
X7122764Y-19525828D02*
X7141811Y-19516304D01*
X7398954Y-19716304D02*
X7284669Y-19716304D01*
X7341811Y-19716304D02*
X7341811Y-19516304D01*
X7341811Y-19516304D02*
X7322764Y-19544876D01*
X7322764Y-19544876D02*
X7303716Y-19563923D01*
X7303716Y-19563923D02*
X7284669Y-19573447D01*
X7579907Y-19516304D02*
X7484669Y-19516304D01*
X7484669Y-19516304D02*
X7475145Y-19611542D01*
X7475145Y-19611542D02*
X7484669Y-19602018D01*
X7484669Y-19602018D02*
X7503716Y-19592495D01*
X7503716Y-19592495D02*
X7551335Y-19592495D01*
X7551335Y-19592495D02*
X7570383Y-19602018D01*
X7570383Y-19602018D02*
X7579907Y-19611542D01*
X7579907Y-19611542D02*
X7589431Y-19630590D01*
X7589431Y-19630590D02*
X7589431Y-19678209D01*
X7589431Y-19678209D02*
X7579907Y-19697256D01*
X7579907Y-19697256D02*
X7570383Y-19706780D01*
X7570383Y-19706780D02*
X7551335Y-19716304D01*
X7551335Y-19716304D02*
X7503716Y-19716304D01*
X7503716Y-19716304D02*
X7484669Y-19706780D01*
X7484669Y-19706780D02*
X7475145Y-19697256D01*
X7656097Y-19516304D02*
X7789431Y-19516304D01*
X7789431Y-19516304D02*
X7703716Y-19716304D01*
X7856097Y-19516304D02*
X7856097Y-19554399D01*
X7932288Y-19516304D02*
X7932288Y-19554399D01*
X8227526Y-19792495D02*
X8218002Y-19782971D01*
X8218002Y-19782971D02*
X8198954Y-19754399D01*
X8198954Y-19754399D02*
X8189431Y-19735352D01*
X8189431Y-19735352D02*
X8179907Y-19706780D01*
X8179907Y-19706780D02*
X8170383Y-19659161D01*
X8170383Y-19659161D02*
X8170383Y-19621066D01*
X8170383Y-19621066D02*
X8179907Y-19573447D01*
X8179907Y-19573447D02*
X8189431Y-19544876D01*
X8189431Y-19544876D02*
X8198954Y-19525828D01*
X8198954Y-19525828D02*
X8218002Y-19497256D01*
X8218002Y-19497256D02*
X8227526Y-19487733D01*
X8284669Y-19516304D02*
X8418002Y-19516304D01*
X8418002Y-19516304D02*
X8332288Y-19716304D01*
X8579907Y-19516304D02*
X8541812Y-19516304D01*
X8541812Y-19516304D02*
X8522764Y-19525828D01*
X8522764Y-19525828D02*
X8513240Y-19535352D01*
X8513240Y-19535352D02*
X8494193Y-19563923D01*
X8494193Y-19563923D02*
X8484669Y-19602018D01*
X8484669Y-19602018D02*
X8484669Y-19678209D01*
X8484669Y-19678209D02*
X8494193Y-19697256D01*
X8494193Y-19697256D02*
X8503716Y-19706780D01*
X8503716Y-19706780D02*
X8522764Y-19716304D01*
X8522764Y-19716304D02*
X8560859Y-19716304D01*
X8560859Y-19716304D02*
X8579907Y-19706780D01*
X8579907Y-19706780D02*
X8589431Y-19697256D01*
X8589431Y-19697256D02*
X8598955Y-19678209D01*
X8598955Y-19678209D02*
X8598955Y-19630590D01*
X8598955Y-19630590D02*
X8589431Y-19611542D01*
X8589431Y-19611542D02*
X8579907Y-19602018D01*
X8579907Y-19602018D02*
X8560859Y-19592495D01*
X8560859Y-19592495D02*
X8522764Y-19592495D01*
X8522764Y-19592495D02*
X8503716Y-19602018D01*
X8503716Y-19602018D02*
X8494193Y-19611542D01*
X8494193Y-19611542D02*
X8484669Y-19630590D01*
X8837050Y-19716304D02*
X8837050Y-19516304D01*
X8922764Y-19716304D02*
X8922764Y-19611542D01*
X8922764Y-19611542D02*
X8913240Y-19592495D01*
X8913240Y-19592495D02*
X8894193Y-19582971D01*
X8894193Y-19582971D02*
X8865621Y-19582971D01*
X8865621Y-19582971D02*
X8846574Y-19592495D01*
X8846574Y-19592495D02*
X8837050Y-19602018D01*
X9046574Y-19716304D02*
X9027526Y-19706780D01*
X9027526Y-19706780D02*
X9018002Y-19697256D01*
X9018002Y-19697256D02*
X9008478Y-19678209D01*
X9008478Y-19678209D02*
X9008478Y-19621066D01*
X9008478Y-19621066D02*
X9018002Y-19602018D01*
X9018002Y-19602018D02*
X9027526Y-19592495D01*
X9027526Y-19592495D02*
X9046574Y-19582971D01*
X9046574Y-19582971D02*
X9075145Y-19582971D01*
X9075145Y-19582971D02*
X9094193Y-19592495D01*
X9094193Y-19592495D02*
X9103717Y-19602018D01*
X9103717Y-19602018D02*
X9113240Y-19621066D01*
X9113240Y-19621066D02*
X9113240Y-19678209D01*
X9113240Y-19678209D02*
X9103717Y-19697256D01*
X9103717Y-19697256D02*
X9094193Y-19706780D01*
X9094193Y-19706780D02*
X9075145Y-19716304D01*
X9075145Y-19716304D02*
X9046574Y-19716304D01*
X9227526Y-19716304D02*
X9208478Y-19706780D01*
X9208478Y-19706780D02*
X9198955Y-19687733D01*
X9198955Y-19687733D02*
X9198955Y-19516304D01*
X9379907Y-19706780D02*
X9360859Y-19716304D01*
X9360859Y-19716304D02*
X9322764Y-19716304D01*
X9322764Y-19716304D02*
X9303717Y-19706780D01*
X9303717Y-19706780D02*
X9294193Y-19687733D01*
X9294193Y-19687733D02*
X9294193Y-19611542D01*
X9294193Y-19611542D02*
X9303717Y-19592495D01*
X9303717Y-19592495D02*
X9322764Y-19582971D01*
X9322764Y-19582971D02*
X9360859Y-19582971D01*
X9360859Y-19582971D02*
X9379907Y-19592495D01*
X9379907Y-19592495D02*
X9389431Y-19611542D01*
X9389431Y-19611542D02*
X9389431Y-19630590D01*
X9389431Y-19630590D02*
X9294193Y-19649637D01*
X9465621Y-19706780D02*
X9484669Y-19716304D01*
X9484669Y-19716304D02*
X9522764Y-19716304D01*
X9522764Y-19716304D02*
X9541812Y-19706780D01*
X9541812Y-19706780D02*
X9551336Y-19687733D01*
X9551336Y-19687733D02*
X9551336Y-19678209D01*
X9551336Y-19678209D02*
X9541812Y-19659161D01*
X9541812Y-19659161D02*
X9522764Y-19649637D01*
X9522764Y-19649637D02*
X9494193Y-19649637D01*
X9494193Y-19649637D02*
X9475145Y-19640114D01*
X9475145Y-19640114D02*
X9465621Y-19621066D01*
X9465621Y-19621066D02*
X9465621Y-19611542D01*
X9465621Y-19611542D02*
X9475145Y-19592495D01*
X9475145Y-19592495D02*
X9494193Y-19582971D01*
X9494193Y-19582971D02*
X9522764Y-19582971D01*
X9522764Y-19582971D02*
X9541812Y-19592495D01*
X9618002Y-19792495D02*
X9627526Y-19782971D01*
X9627526Y-19782971D02*
X9646574Y-19754399D01*
X9646574Y-19754399D02*
X9656098Y-19735352D01*
X9656098Y-19735352D02*
X9665621Y-19706780D01*
X9665621Y-19706780D02*
X9675145Y-19659161D01*
X9675145Y-19659161D02*
X9675145Y-19621066D01*
X9675145Y-19621066D02*
X9665621Y-19573447D01*
X9665621Y-19573447D02*
X9656098Y-19544876D01*
X9656098Y-19544876D02*
X9646574Y-19525828D01*
X9646574Y-19525828D02*
X9627526Y-19497256D01*
X9627526Y-19497256D02*
X9618002Y-19487733D01*
D13*
X4665621Y-19887780D02*
G75*
G03*
X4665621Y-19887780I-30000J0D01*
G01*
D11*
X4951335Y-19780304D02*
X4970383Y-19780304D01*
X4970383Y-19780304D02*
X4989430Y-19789828D01*
X4989430Y-19789828D02*
X4998954Y-19799352D01*
X4998954Y-19799352D02*
X5008478Y-19818399D01*
X5008478Y-19818399D02*
X5018002Y-19856495D01*
X5018002Y-19856495D02*
X5018002Y-19904114D01*
X5018002Y-19904114D02*
X5008478Y-19942209D01*
X5008478Y-19942209D02*
X4998954Y-19961256D01*
X4998954Y-19961256D02*
X4989430Y-19970780D01*
X4989430Y-19970780D02*
X4970383Y-19980304D01*
X4970383Y-19980304D02*
X4951335Y-19980304D01*
X4951335Y-19980304D02*
X4932288Y-19970780D01*
X4932288Y-19970780D02*
X4922764Y-19961256D01*
X4922764Y-19961256D02*
X4913240Y-19942209D01*
X4913240Y-19942209D02*
X4903716Y-19904114D01*
X4903716Y-19904114D02*
X4903716Y-19856495D01*
X4903716Y-19856495D02*
X4913240Y-19818399D01*
X4913240Y-19818399D02*
X4922764Y-19799352D01*
X4922764Y-19799352D02*
X4932288Y-19789828D01*
X4932288Y-19789828D02*
X4951335Y-19780304D01*
X5103716Y-19961256D02*
X5113240Y-19970780D01*
X5113240Y-19970780D02*
X5103716Y-19980304D01*
X5103716Y-19980304D02*
X5094192Y-19970780D01*
X5094192Y-19970780D02*
X5103716Y-19961256D01*
X5103716Y-19961256D02*
X5103716Y-19980304D01*
X5284669Y-19780304D02*
X5246573Y-19780304D01*
X5246573Y-19780304D02*
X5227526Y-19789828D01*
X5227526Y-19789828D02*
X5218002Y-19799352D01*
X5218002Y-19799352D02*
X5198954Y-19827923D01*
X5198954Y-19827923D02*
X5189430Y-19866018D01*
X5189430Y-19866018D02*
X5189430Y-19942209D01*
X5189430Y-19942209D02*
X5198954Y-19961256D01*
X5198954Y-19961256D02*
X5208478Y-19970780D01*
X5208478Y-19970780D02*
X5227526Y-19980304D01*
X5227526Y-19980304D02*
X5265621Y-19980304D01*
X5265621Y-19980304D02*
X5284669Y-19970780D01*
X5284669Y-19970780D02*
X5294192Y-19961256D01*
X5294192Y-19961256D02*
X5303716Y-19942209D01*
X5303716Y-19942209D02*
X5303716Y-19894590D01*
X5303716Y-19894590D02*
X5294192Y-19875542D01*
X5294192Y-19875542D02*
X5284669Y-19866018D01*
X5284669Y-19866018D02*
X5265621Y-19856495D01*
X5265621Y-19856495D02*
X5227526Y-19856495D01*
X5227526Y-19856495D02*
X5208478Y-19866018D01*
X5208478Y-19866018D02*
X5198954Y-19875542D01*
X5198954Y-19875542D02*
X5189430Y-19894590D01*
X5427526Y-19780304D02*
X5446573Y-19780304D01*
X5446573Y-19780304D02*
X5465621Y-19789828D01*
X5465621Y-19789828D02*
X5475145Y-19799352D01*
X5475145Y-19799352D02*
X5484669Y-19818399D01*
X5484669Y-19818399D02*
X5494192Y-19856495D01*
X5494192Y-19856495D02*
X5494192Y-19904114D01*
X5494192Y-19904114D02*
X5484669Y-19942209D01*
X5484669Y-19942209D02*
X5475145Y-19961256D01*
X5475145Y-19961256D02*
X5465621Y-19970780D01*
X5465621Y-19970780D02*
X5446573Y-19980304D01*
X5446573Y-19980304D02*
X5427526Y-19980304D01*
X5427526Y-19980304D02*
X5408478Y-19970780D01*
X5408478Y-19970780D02*
X5398954Y-19961256D01*
X5398954Y-19961256D02*
X5389430Y-19942209D01*
X5389430Y-19942209D02*
X5379907Y-19904114D01*
X5379907Y-19904114D02*
X5379907Y-19856495D01*
X5379907Y-19856495D02*
X5389430Y-19818399D01*
X5389430Y-19818399D02*
X5398954Y-19799352D01*
X5398954Y-19799352D02*
X5408478Y-19789828D01*
X5408478Y-19789828D02*
X5427526Y-19780304D01*
X5618002Y-19780304D02*
X5637049Y-19780304D01*
X5637049Y-19780304D02*
X5656097Y-19789828D01*
X5656097Y-19789828D02*
X5665621Y-19799352D01*
X5665621Y-19799352D02*
X5675145Y-19818399D01*
X5675145Y-19818399D02*
X5684668Y-19856495D01*
X5684668Y-19856495D02*
X5684668Y-19904114D01*
X5684668Y-19904114D02*
X5675145Y-19942209D01*
X5675145Y-19942209D02*
X5665621Y-19961256D01*
X5665621Y-19961256D02*
X5656097Y-19970780D01*
X5656097Y-19970780D02*
X5637049Y-19980304D01*
X5637049Y-19980304D02*
X5618002Y-19980304D01*
X5618002Y-19980304D02*
X5598954Y-19970780D01*
X5598954Y-19970780D02*
X5589430Y-19961256D01*
X5589430Y-19961256D02*
X5579907Y-19942209D01*
X5579907Y-19942209D02*
X5570383Y-19904114D01*
X5570383Y-19904114D02*
X5570383Y-19856495D01*
X5570383Y-19856495D02*
X5579907Y-19818399D01*
X5579907Y-19818399D02*
X5589430Y-19799352D01*
X5589430Y-19799352D02*
X5598954Y-19789828D01*
X5598954Y-19789828D02*
X5618002Y-19780304D01*
X5770383Y-19980304D02*
X5770383Y-19846971D01*
X5770383Y-19866018D02*
X5779907Y-19856495D01*
X5779907Y-19856495D02*
X5798954Y-19846971D01*
X5798954Y-19846971D02*
X5827526Y-19846971D01*
X5827526Y-19846971D02*
X5846573Y-19856495D01*
X5846573Y-19856495D02*
X5856097Y-19875542D01*
X5856097Y-19875542D02*
X5856097Y-19980304D01*
X5856097Y-19875542D02*
X5865621Y-19856495D01*
X5865621Y-19856495D02*
X5884668Y-19846971D01*
X5884668Y-19846971D02*
X5913240Y-19846971D01*
X5913240Y-19846971D02*
X5932288Y-19856495D01*
X5932288Y-19856495D02*
X5941811Y-19875542D01*
X5941811Y-19875542D02*
X5941811Y-19980304D01*
X6037049Y-19980304D02*
X6037049Y-19846971D01*
X6037049Y-19866018D02*
X6046573Y-19856495D01*
X6046573Y-19856495D02*
X6065621Y-19846971D01*
X6065621Y-19846971D02*
X6094192Y-19846971D01*
X6094192Y-19846971D02*
X6113240Y-19856495D01*
X6113240Y-19856495D02*
X6122764Y-19875542D01*
X6122764Y-19875542D02*
X6122764Y-19980304D01*
X6122764Y-19875542D02*
X6132288Y-19856495D01*
X6132288Y-19856495D02*
X6151335Y-19846971D01*
X6151335Y-19846971D02*
X6179907Y-19846971D01*
X6179907Y-19846971D02*
X6198954Y-19856495D01*
X6198954Y-19856495D02*
X6208478Y-19875542D01*
X6208478Y-19875542D02*
X6208478Y-19980304D01*
X6598954Y-19770780D02*
X6427526Y-20027923D01*
X6856097Y-19780304D02*
X6875145Y-19780304D01*
X6875145Y-19780304D02*
X6894192Y-19789828D01*
X6894192Y-19789828D02*
X6903716Y-19799352D01*
X6903716Y-19799352D02*
X6913240Y-19818399D01*
X6913240Y-19818399D02*
X6922764Y-19856495D01*
X6922764Y-19856495D02*
X6922764Y-19904114D01*
X6922764Y-19904114D02*
X6913240Y-19942209D01*
X6913240Y-19942209D02*
X6903716Y-19961256D01*
X6903716Y-19961256D02*
X6894192Y-19970780D01*
X6894192Y-19970780D02*
X6875145Y-19980304D01*
X6875145Y-19980304D02*
X6856097Y-19980304D01*
X6856097Y-19980304D02*
X6837050Y-19970780D01*
X6837050Y-19970780D02*
X6827526Y-19961256D01*
X6827526Y-19961256D02*
X6818002Y-19942209D01*
X6818002Y-19942209D02*
X6808478Y-19904114D01*
X6808478Y-19904114D02*
X6808478Y-19856495D01*
X6808478Y-19856495D02*
X6818002Y-19818399D01*
X6818002Y-19818399D02*
X6827526Y-19799352D01*
X6827526Y-19799352D02*
X6837050Y-19789828D01*
X6837050Y-19789828D02*
X6856097Y-19780304D01*
X7008478Y-19961256D02*
X7018002Y-19970780D01*
X7018002Y-19970780D02*
X7008478Y-19980304D01*
X7008478Y-19980304D02*
X6998954Y-19970780D01*
X6998954Y-19970780D02*
X7008478Y-19961256D01*
X7008478Y-19961256D02*
X7008478Y-19980304D01*
X7141811Y-19780304D02*
X7160859Y-19780304D01*
X7160859Y-19780304D02*
X7179907Y-19789828D01*
X7179907Y-19789828D02*
X7189431Y-19799352D01*
X7189431Y-19799352D02*
X7198954Y-19818399D01*
X7198954Y-19818399D02*
X7208478Y-19856495D01*
X7208478Y-19856495D02*
X7208478Y-19904114D01*
X7208478Y-19904114D02*
X7198954Y-19942209D01*
X7198954Y-19942209D02*
X7189431Y-19961256D01*
X7189431Y-19961256D02*
X7179907Y-19970780D01*
X7179907Y-19970780D02*
X7160859Y-19980304D01*
X7160859Y-19980304D02*
X7141811Y-19980304D01*
X7141811Y-19980304D02*
X7122764Y-19970780D01*
X7122764Y-19970780D02*
X7113240Y-19961256D01*
X7113240Y-19961256D02*
X7103716Y-19942209D01*
X7103716Y-19942209D02*
X7094192Y-19904114D01*
X7094192Y-19904114D02*
X7094192Y-19856495D01*
X7094192Y-19856495D02*
X7103716Y-19818399D01*
X7103716Y-19818399D02*
X7113240Y-19799352D01*
X7113240Y-19799352D02*
X7122764Y-19789828D01*
X7122764Y-19789828D02*
X7141811Y-19780304D01*
X7284669Y-19799352D02*
X7294192Y-19789828D01*
X7294192Y-19789828D02*
X7313240Y-19780304D01*
X7313240Y-19780304D02*
X7360859Y-19780304D01*
X7360859Y-19780304D02*
X7379907Y-19789828D01*
X7379907Y-19789828D02*
X7389431Y-19799352D01*
X7389431Y-19799352D02*
X7398954Y-19818399D01*
X7398954Y-19818399D02*
X7398954Y-19837447D01*
X7398954Y-19837447D02*
X7389431Y-19866018D01*
X7389431Y-19866018D02*
X7275145Y-19980304D01*
X7275145Y-19980304D02*
X7398954Y-19980304D01*
X7465621Y-19780304D02*
X7589431Y-19780304D01*
X7589431Y-19780304D02*
X7522764Y-19856495D01*
X7522764Y-19856495D02*
X7551335Y-19856495D01*
X7551335Y-19856495D02*
X7570383Y-19866018D01*
X7570383Y-19866018D02*
X7579907Y-19875542D01*
X7579907Y-19875542D02*
X7589431Y-19894590D01*
X7589431Y-19894590D02*
X7589431Y-19942209D01*
X7589431Y-19942209D02*
X7579907Y-19961256D01*
X7579907Y-19961256D02*
X7570383Y-19970780D01*
X7570383Y-19970780D02*
X7551335Y-19980304D01*
X7551335Y-19980304D02*
X7494192Y-19980304D01*
X7494192Y-19980304D02*
X7475145Y-19970780D01*
X7475145Y-19970780D02*
X7465621Y-19961256D01*
X7760859Y-19780304D02*
X7722764Y-19780304D01*
X7722764Y-19780304D02*
X7703716Y-19789828D01*
X7703716Y-19789828D02*
X7694192Y-19799352D01*
X7694192Y-19799352D02*
X7675145Y-19827923D01*
X7675145Y-19827923D02*
X7665621Y-19866018D01*
X7665621Y-19866018D02*
X7665621Y-19942209D01*
X7665621Y-19942209D02*
X7675145Y-19961256D01*
X7675145Y-19961256D02*
X7684669Y-19970780D01*
X7684669Y-19970780D02*
X7703716Y-19980304D01*
X7703716Y-19980304D02*
X7741812Y-19980304D01*
X7741812Y-19980304D02*
X7760859Y-19970780D01*
X7760859Y-19970780D02*
X7770383Y-19961256D01*
X7770383Y-19961256D02*
X7779907Y-19942209D01*
X7779907Y-19942209D02*
X7779907Y-19894590D01*
X7779907Y-19894590D02*
X7770383Y-19875542D01*
X7770383Y-19875542D02*
X7760859Y-19866018D01*
X7760859Y-19866018D02*
X7741812Y-19856495D01*
X7741812Y-19856495D02*
X7703716Y-19856495D01*
X7703716Y-19856495D02*
X7684669Y-19866018D01*
X7684669Y-19866018D02*
X7675145Y-19875542D01*
X7675145Y-19875542D02*
X7665621Y-19894590D01*
X7856097Y-19780304D02*
X7856097Y-19818399D01*
X7932288Y-19780304D02*
X7932288Y-19818399D01*
X8227526Y-20056495D02*
X8218002Y-20046971D01*
X8218002Y-20046971D02*
X8198954Y-20018399D01*
X8198954Y-20018399D02*
X8189431Y-19999352D01*
X8189431Y-19999352D02*
X8179907Y-19970780D01*
X8179907Y-19970780D02*
X8170383Y-19923161D01*
X8170383Y-19923161D02*
X8170383Y-19885066D01*
X8170383Y-19885066D02*
X8179907Y-19837447D01*
X8179907Y-19837447D02*
X8189431Y-19808876D01*
X8189431Y-19808876D02*
X8198954Y-19789828D01*
X8198954Y-19789828D02*
X8218002Y-19761256D01*
X8218002Y-19761256D02*
X8227526Y-19751733D01*
X8341812Y-19780304D02*
X8360859Y-19780304D01*
X8360859Y-19780304D02*
X8379907Y-19789828D01*
X8379907Y-19789828D02*
X8389431Y-19799352D01*
X8389431Y-19799352D02*
X8398955Y-19818399D01*
X8398955Y-19818399D02*
X8408478Y-19856495D01*
X8408478Y-19856495D02*
X8408478Y-19904114D01*
X8408478Y-19904114D02*
X8398955Y-19942209D01*
X8398955Y-19942209D02*
X8389431Y-19961256D01*
X8389431Y-19961256D02*
X8379907Y-19970780D01*
X8379907Y-19970780D02*
X8360859Y-19980304D01*
X8360859Y-19980304D02*
X8341812Y-19980304D01*
X8341812Y-19980304D02*
X8322764Y-19970780D01*
X8322764Y-19970780D02*
X8313240Y-19961256D01*
X8313240Y-19961256D02*
X8303716Y-19942209D01*
X8303716Y-19942209D02*
X8294193Y-19904114D01*
X8294193Y-19904114D02*
X8294193Y-19856495D01*
X8294193Y-19856495D02*
X8303716Y-19818399D01*
X8303716Y-19818399D02*
X8313240Y-19799352D01*
X8313240Y-19799352D02*
X8322764Y-19789828D01*
X8322764Y-19789828D02*
X8341812Y-19780304D01*
X8646574Y-19980304D02*
X8646574Y-19780304D01*
X8732288Y-19980304D02*
X8732288Y-19875542D01*
X8732288Y-19875542D02*
X8722764Y-19856495D01*
X8722764Y-19856495D02*
X8703717Y-19846971D01*
X8703717Y-19846971D02*
X8675145Y-19846971D01*
X8675145Y-19846971D02*
X8656097Y-19856495D01*
X8656097Y-19856495D02*
X8646574Y-19866018D01*
X8856097Y-19980304D02*
X8837050Y-19970780D01*
X8837050Y-19970780D02*
X8827526Y-19961256D01*
X8827526Y-19961256D02*
X8818002Y-19942209D01*
X8818002Y-19942209D02*
X8818002Y-19885066D01*
X8818002Y-19885066D02*
X8827526Y-19866018D01*
X8827526Y-19866018D02*
X8837050Y-19856495D01*
X8837050Y-19856495D02*
X8856097Y-19846971D01*
X8856097Y-19846971D02*
X8884669Y-19846971D01*
X8884669Y-19846971D02*
X8903717Y-19856495D01*
X8903717Y-19856495D02*
X8913240Y-19866018D01*
X8913240Y-19866018D02*
X8922764Y-19885066D01*
X8922764Y-19885066D02*
X8922764Y-19942209D01*
X8922764Y-19942209D02*
X8913240Y-19961256D01*
X8913240Y-19961256D02*
X8903717Y-19970780D01*
X8903717Y-19970780D02*
X8884669Y-19980304D01*
X8884669Y-19980304D02*
X8856097Y-19980304D01*
X9037050Y-19980304D02*
X9018002Y-19970780D01*
X9018002Y-19970780D02*
X9008478Y-19951733D01*
X9008478Y-19951733D02*
X9008478Y-19780304D01*
X9189431Y-19970780D02*
X9170383Y-19980304D01*
X9170383Y-19980304D02*
X9132288Y-19980304D01*
X9132288Y-19980304D02*
X9113240Y-19970780D01*
X9113240Y-19970780D02*
X9103717Y-19951733D01*
X9103717Y-19951733D02*
X9103717Y-19875542D01*
X9103717Y-19875542D02*
X9113240Y-19856495D01*
X9113240Y-19856495D02*
X9132288Y-19846971D01*
X9132288Y-19846971D02*
X9170383Y-19846971D01*
X9170383Y-19846971D02*
X9189431Y-19856495D01*
X9189431Y-19856495D02*
X9198955Y-19875542D01*
X9198955Y-19875542D02*
X9198955Y-19894590D01*
X9198955Y-19894590D02*
X9103717Y-19913637D01*
X9275145Y-19970780D02*
X9294193Y-19980304D01*
X9294193Y-19980304D02*
X9332288Y-19980304D01*
X9332288Y-19980304D02*
X9351336Y-19970780D01*
X9351336Y-19970780D02*
X9360859Y-19951733D01*
X9360859Y-19951733D02*
X9360859Y-19942209D01*
X9360859Y-19942209D02*
X9351336Y-19923161D01*
X9351336Y-19923161D02*
X9332288Y-19913637D01*
X9332288Y-19913637D02*
X9303717Y-19913637D01*
X9303717Y-19913637D02*
X9284669Y-19904114D01*
X9284669Y-19904114D02*
X9275145Y-19885066D01*
X9275145Y-19885066D02*
X9275145Y-19875542D01*
X9275145Y-19875542D02*
X9284669Y-19856495D01*
X9284669Y-19856495D02*
X9303717Y-19846971D01*
X9303717Y-19846971D02*
X9332288Y-19846971D01*
X9332288Y-19846971D02*
X9351336Y-19856495D01*
X9598955Y-19904114D02*
X9751336Y-19904114D01*
X9675145Y-19980304D02*
X9675145Y-19827923D01*
X10084669Y-19846971D02*
X10084669Y-19980304D01*
X10037050Y-19770780D02*
X9989431Y-19913637D01*
X9989431Y-19913637D02*
X10113240Y-19913637D01*
X10332288Y-19970780D02*
X10351336Y-19980304D01*
X10351336Y-19980304D02*
X10389431Y-19980304D01*
X10389431Y-19980304D02*
X10408479Y-19970780D01*
X10408479Y-19970780D02*
X10418002Y-19951733D01*
X10418002Y-19951733D02*
X10418002Y-19942209D01*
X10418002Y-19942209D02*
X10408479Y-19923161D01*
X10408479Y-19923161D02*
X10389431Y-19913637D01*
X10389431Y-19913637D02*
X10360860Y-19913637D01*
X10360860Y-19913637D02*
X10341812Y-19904114D01*
X10341812Y-19904114D02*
X10332288Y-19885066D01*
X10332288Y-19885066D02*
X10332288Y-19875542D01*
X10332288Y-19875542D02*
X10341812Y-19856495D01*
X10341812Y-19856495D02*
X10360860Y-19846971D01*
X10360860Y-19846971D02*
X10389431Y-19846971D01*
X10389431Y-19846971D02*
X10408479Y-19856495D01*
X10532288Y-19980304D02*
X10513241Y-19970780D01*
X10513241Y-19970780D02*
X10503717Y-19951733D01*
X10503717Y-19951733D02*
X10503717Y-19780304D01*
X10637050Y-19980304D02*
X10618002Y-19970780D01*
X10618002Y-19970780D02*
X10608479Y-19961256D01*
X10608479Y-19961256D02*
X10598955Y-19942209D01*
X10598955Y-19942209D02*
X10598955Y-19885066D01*
X10598955Y-19885066D02*
X10608479Y-19866018D01*
X10608479Y-19866018D02*
X10618002Y-19856495D01*
X10618002Y-19856495D02*
X10637050Y-19846971D01*
X10637050Y-19846971D02*
X10665622Y-19846971D01*
X10665622Y-19846971D02*
X10684669Y-19856495D01*
X10684669Y-19856495D02*
X10694193Y-19866018D01*
X10694193Y-19866018D02*
X10703717Y-19885066D01*
X10703717Y-19885066D02*
X10703717Y-19942209D01*
X10703717Y-19942209D02*
X10694193Y-19961256D01*
X10694193Y-19961256D02*
X10684669Y-19970780D01*
X10684669Y-19970780D02*
X10665622Y-19980304D01*
X10665622Y-19980304D02*
X10637050Y-19980304D01*
X10760860Y-19846971D02*
X10837050Y-19846971D01*
X10789431Y-19780304D02*
X10789431Y-19951733D01*
X10789431Y-19951733D02*
X10798955Y-19970780D01*
X10798955Y-19970780D02*
X10818002Y-19980304D01*
X10818002Y-19980304D02*
X10837050Y-19980304D01*
X10894193Y-19970780D02*
X10913241Y-19980304D01*
X10913241Y-19980304D02*
X10951336Y-19980304D01*
X10951336Y-19980304D02*
X10970383Y-19970780D01*
X10970383Y-19970780D02*
X10979907Y-19951733D01*
X10979907Y-19951733D02*
X10979907Y-19942209D01*
X10979907Y-19942209D02*
X10970383Y-19923161D01*
X10970383Y-19923161D02*
X10951336Y-19913637D01*
X10951336Y-19913637D02*
X10922764Y-19913637D01*
X10922764Y-19913637D02*
X10903717Y-19904114D01*
X10903717Y-19904114D02*
X10894193Y-19885066D01*
X10894193Y-19885066D02*
X10894193Y-19875542D01*
X10894193Y-19875542D02*
X10903717Y-19856495D01*
X10903717Y-19856495D02*
X10922764Y-19846971D01*
X10922764Y-19846971D02*
X10951336Y-19846971D01*
X10951336Y-19846971D02*
X10970383Y-19856495D01*
X11046574Y-20056495D02*
X11056098Y-20046971D01*
X11056098Y-20046971D02*
X11075145Y-20018399D01*
X11075145Y-20018399D02*
X11084669Y-19999352D01*
X11084669Y-19999352D02*
X11094193Y-19970780D01*
X11094193Y-19970780D02*
X11103717Y-19923161D01*
X11103717Y-19923161D02*
X11103717Y-19885066D01*
X11103717Y-19885066D02*
X11094193Y-19837447D01*
X11094193Y-19837447D02*
X11084669Y-19808876D01*
X11084669Y-19808876D02*
X11075145Y-19789828D01*
X11075145Y-19789828D02*
X11056098Y-19761256D01*
X11056098Y-19761256D02*
X11046574Y-19751733D01*
D14*
X4602121Y-20088280D02*
X4602121Y-20215280D01*
X4538621Y-20151780D02*
X4665621Y-20151780D01*
D11*
X5018002Y-20244304D02*
X4903716Y-20244304D01*
X4960859Y-20244304D02*
X4960859Y-20044304D01*
X4960859Y-20044304D02*
X4941811Y-20072876D01*
X4941811Y-20072876D02*
X4922764Y-20091923D01*
X4922764Y-20091923D02*
X4903716Y-20101447D01*
X5103716Y-20225256D02*
X5113240Y-20234780D01*
X5113240Y-20234780D02*
X5103716Y-20244304D01*
X5103716Y-20244304D02*
X5094192Y-20234780D01*
X5094192Y-20234780D02*
X5103716Y-20225256D01*
X5103716Y-20225256D02*
X5103716Y-20244304D01*
X5189430Y-20063352D02*
X5198954Y-20053828D01*
X5198954Y-20053828D02*
X5218002Y-20044304D01*
X5218002Y-20044304D02*
X5265621Y-20044304D01*
X5265621Y-20044304D02*
X5284669Y-20053828D01*
X5284669Y-20053828D02*
X5294192Y-20063352D01*
X5294192Y-20063352D02*
X5303716Y-20082399D01*
X5303716Y-20082399D02*
X5303716Y-20101447D01*
X5303716Y-20101447D02*
X5294192Y-20130018D01*
X5294192Y-20130018D02*
X5179907Y-20244304D01*
X5179907Y-20244304D02*
X5303716Y-20244304D01*
X5370383Y-20044304D02*
X5503716Y-20044304D01*
X5503716Y-20044304D02*
X5418002Y-20244304D01*
X5618002Y-20044304D02*
X5637049Y-20044304D01*
X5637049Y-20044304D02*
X5656097Y-20053828D01*
X5656097Y-20053828D02*
X5665621Y-20063352D01*
X5665621Y-20063352D02*
X5675145Y-20082399D01*
X5675145Y-20082399D02*
X5684668Y-20120495D01*
X5684668Y-20120495D02*
X5684668Y-20168114D01*
X5684668Y-20168114D02*
X5675145Y-20206209D01*
X5675145Y-20206209D02*
X5665621Y-20225256D01*
X5665621Y-20225256D02*
X5656097Y-20234780D01*
X5656097Y-20234780D02*
X5637049Y-20244304D01*
X5637049Y-20244304D02*
X5618002Y-20244304D01*
X5618002Y-20244304D02*
X5598954Y-20234780D01*
X5598954Y-20234780D02*
X5589430Y-20225256D01*
X5589430Y-20225256D02*
X5579907Y-20206209D01*
X5579907Y-20206209D02*
X5570383Y-20168114D01*
X5570383Y-20168114D02*
X5570383Y-20120495D01*
X5570383Y-20120495D02*
X5579907Y-20082399D01*
X5579907Y-20082399D02*
X5589430Y-20063352D01*
X5589430Y-20063352D02*
X5598954Y-20053828D01*
X5598954Y-20053828D02*
X5618002Y-20044304D01*
X5770383Y-20244304D02*
X5770383Y-20110971D01*
X5770383Y-20130018D02*
X5779907Y-20120495D01*
X5779907Y-20120495D02*
X5798954Y-20110971D01*
X5798954Y-20110971D02*
X5827526Y-20110971D01*
X5827526Y-20110971D02*
X5846573Y-20120495D01*
X5846573Y-20120495D02*
X5856097Y-20139542D01*
X5856097Y-20139542D02*
X5856097Y-20244304D01*
X5856097Y-20139542D02*
X5865621Y-20120495D01*
X5865621Y-20120495D02*
X5884668Y-20110971D01*
X5884668Y-20110971D02*
X5913240Y-20110971D01*
X5913240Y-20110971D02*
X5932288Y-20120495D01*
X5932288Y-20120495D02*
X5941811Y-20139542D01*
X5941811Y-20139542D02*
X5941811Y-20244304D01*
X6037049Y-20244304D02*
X6037049Y-20110971D01*
X6037049Y-20130018D02*
X6046573Y-20120495D01*
X6046573Y-20120495D02*
X6065621Y-20110971D01*
X6065621Y-20110971D02*
X6094192Y-20110971D01*
X6094192Y-20110971D02*
X6113240Y-20120495D01*
X6113240Y-20120495D02*
X6122764Y-20139542D01*
X6122764Y-20139542D02*
X6122764Y-20244304D01*
X6122764Y-20139542D02*
X6132288Y-20120495D01*
X6132288Y-20120495D02*
X6151335Y-20110971D01*
X6151335Y-20110971D02*
X6179907Y-20110971D01*
X6179907Y-20110971D02*
X6198954Y-20120495D01*
X6198954Y-20120495D02*
X6208478Y-20139542D01*
X6208478Y-20139542D02*
X6208478Y-20244304D01*
X6598954Y-20034780D02*
X6427526Y-20291923D01*
X6856097Y-20044304D02*
X6875145Y-20044304D01*
X6875145Y-20044304D02*
X6894192Y-20053828D01*
X6894192Y-20053828D02*
X6903716Y-20063352D01*
X6903716Y-20063352D02*
X6913240Y-20082399D01*
X6913240Y-20082399D02*
X6922764Y-20120495D01*
X6922764Y-20120495D02*
X6922764Y-20168114D01*
X6922764Y-20168114D02*
X6913240Y-20206209D01*
X6913240Y-20206209D02*
X6903716Y-20225256D01*
X6903716Y-20225256D02*
X6894192Y-20234780D01*
X6894192Y-20234780D02*
X6875145Y-20244304D01*
X6875145Y-20244304D02*
X6856097Y-20244304D01*
X6856097Y-20244304D02*
X6837050Y-20234780D01*
X6837050Y-20234780D02*
X6827526Y-20225256D01*
X6827526Y-20225256D02*
X6818002Y-20206209D01*
X6818002Y-20206209D02*
X6808478Y-20168114D01*
X6808478Y-20168114D02*
X6808478Y-20120495D01*
X6808478Y-20120495D02*
X6818002Y-20082399D01*
X6818002Y-20082399D02*
X6827526Y-20063352D01*
X6827526Y-20063352D02*
X6837050Y-20053828D01*
X6837050Y-20053828D02*
X6856097Y-20044304D01*
X7008478Y-20225256D02*
X7018002Y-20234780D01*
X7018002Y-20234780D02*
X7008478Y-20244304D01*
X7008478Y-20244304D02*
X6998954Y-20234780D01*
X6998954Y-20234780D02*
X7008478Y-20225256D01*
X7008478Y-20225256D02*
X7008478Y-20244304D01*
X7141811Y-20044304D02*
X7160859Y-20044304D01*
X7160859Y-20044304D02*
X7179907Y-20053828D01*
X7179907Y-20053828D02*
X7189431Y-20063352D01*
X7189431Y-20063352D02*
X7198954Y-20082399D01*
X7198954Y-20082399D02*
X7208478Y-20120495D01*
X7208478Y-20120495D02*
X7208478Y-20168114D01*
X7208478Y-20168114D02*
X7198954Y-20206209D01*
X7198954Y-20206209D02*
X7189431Y-20225256D01*
X7189431Y-20225256D02*
X7179907Y-20234780D01*
X7179907Y-20234780D02*
X7160859Y-20244304D01*
X7160859Y-20244304D02*
X7141811Y-20244304D01*
X7141811Y-20244304D02*
X7122764Y-20234780D01*
X7122764Y-20234780D02*
X7113240Y-20225256D01*
X7113240Y-20225256D02*
X7103716Y-20206209D01*
X7103716Y-20206209D02*
X7094192Y-20168114D01*
X7094192Y-20168114D02*
X7094192Y-20120495D01*
X7094192Y-20120495D02*
X7103716Y-20082399D01*
X7103716Y-20082399D02*
X7113240Y-20063352D01*
X7113240Y-20063352D02*
X7122764Y-20053828D01*
X7122764Y-20053828D02*
X7141811Y-20044304D01*
X7389431Y-20044304D02*
X7294192Y-20044304D01*
X7294192Y-20044304D02*
X7284669Y-20139542D01*
X7284669Y-20139542D02*
X7294192Y-20130018D01*
X7294192Y-20130018D02*
X7313240Y-20120495D01*
X7313240Y-20120495D02*
X7360859Y-20120495D01*
X7360859Y-20120495D02*
X7379907Y-20130018D01*
X7379907Y-20130018D02*
X7389431Y-20139542D01*
X7389431Y-20139542D02*
X7398954Y-20158590D01*
X7398954Y-20158590D02*
X7398954Y-20206209D01*
X7398954Y-20206209D02*
X7389431Y-20225256D01*
X7389431Y-20225256D02*
X7379907Y-20234780D01*
X7379907Y-20234780D02*
X7360859Y-20244304D01*
X7360859Y-20244304D02*
X7313240Y-20244304D01*
X7313240Y-20244304D02*
X7294192Y-20234780D01*
X7294192Y-20234780D02*
X7284669Y-20225256D01*
X7522764Y-20044304D02*
X7541812Y-20044304D01*
X7541812Y-20044304D02*
X7560859Y-20053828D01*
X7560859Y-20053828D02*
X7570383Y-20063352D01*
X7570383Y-20063352D02*
X7579907Y-20082399D01*
X7579907Y-20082399D02*
X7589431Y-20120495D01*
X7589431Y-20120495D02*
X7589431Y-20168114D01*
X7589431Y-20168114D02*
X7579907Y-20206209D01*
X7579907Y-20206209D02*
X7570383Y-20225256D01*
X7570383Y-20225256D02*
X7560859Y-20234780D01*
X7560859Y-20234780D02*
X7541812Y-20244304D01*
X7541812Y-20244304D02*
X7522764Y-20244304D01*
X7522764Y-20244304D02*
X7503716Y-20234780D01*
X7503716Y-20234780D02*
X7494192Y-20225256D01*
X7494192Y-20225256D02*
X7484669Y-20206209D01*
X7484669Y-20206209D02*
X7475145Y-20168114D01*
X7475145Y-20168114D02*
X7475145Y-20120495D01*
X7475145Y-20120495D02*
X7484669Y-20082399D01*
X7484669Y-20082399D02*
X7494192Y-20063352D01*
X7494192Y-20063352D02*
X7503716Y-20053828D01*
X7503716Y-20053828D02*
X7522764Y-20044304D01*
X7713240Y-20044304D02*
X7732288Y-20044304D01*
X7732288Y-20044304D02*
X7751335Y-20053828D01*
X7751335Y-20053828D02*
X7760859Y-20063352D01*
X7760859Y-20063352D02*
X7770383Y-20082399D01*
X7770383Y-20082399D02*
X7779907Y-20120495D01*
X7779907Y-20120495D02*
X7779907Y-20168114D01*
X7779907Y-20168114D02*
X7770383Y-20206209D01*
X7770383Y-20206209D02*
X7760859Y-20225256D01*
X7760859Y-20225256D02*
X7751335Y-20234780D01*
X7751335Y-20234780D02*
X7732288Y-20244304D01*
X7732288Y-20244304D02*
X7713240Y-20244304D01*
X7713240Y-20244304D02*
X7694192Y-20234780D01*
X7694192Y-20234780D02*
X7684669Y-20225256D01*
X7684669Y-20225256D02*
X7675145Y-20206209D01*
X7675145Y-20206209D02*
X7665621Y-20168114D01*
X7665621Y-20168114D02*
X7665621Y-20120495D01*
X7665621Y-20120495D02*
X7675145Y-20082399D01*
X7675145Y-20082399D02*
X7684669Y-20063352D01*
X7684669Y-20063352D02*
X7694192Y-20053828D01*
X7694192Y-20053828D02*
X7713240Y-20044304D01*
X7856097Y-20044304D02*
X7856097Y-20082399D01*
X7932288Y-20044304D02*
X7932288Y-20082399D01*
X8227526Y-20320495D02*
X8218002Y-20310971D01*
X8218002Y-20310971D02*
X8198954Y-20282399D01*
X8198954Y-20282399D02*
X8189431Y-20263352D01*
X8189431Y-20263352D02*
X8179907Y-20234780D01*
X8179907Y-20234780D02*
X8170383Y-20187161D01*
X8170383Y-20187161D02*
X8170383Y-20149066D01*
X8170383Y-20149066D02*
X8179907Y-20101447D01*
X8179907Y-20101447D02*
X8189431Y-20072876D01*
X8189431Y-20072876D02*
X8198954Y-20053828D01*
X8198954Y-20053828D02*
X8218002Y-20025256D01*
X8218002Y-20025256D02*
X8227526Y-20015733D01*
X8408478Y-20244304D02*
X8294193Y-20244304D01*
X8351335Y-20244304D02*
X8351335Y-20044304D01*
X8351335Y-20044304D02*
X8332288Y-20072876D01*
X8332288Y-20072876D02*
X8313240Y-20091923D01*
X8313240Y-20091923D02*
X8294193Y-20101447D01*
X8532288Y-20044304D02*
X8551336Y-20044304D01*
X8551336Y-20044304D02*
X8570383Y-20053828D01*
X8570383Y-20053828D02*
X8579907Y-20063352D01*
X8579907Y-20063352D02*
X8589431Y-20082399D01*
X8589431Y-20082399D02*
X8598955Y-20120495D01*
X8598955Y-20120495D02*
X8598955Y-20168114D01*
X8598955Y-20168114D02*
X8589431Y-20206209D01*
X8589431Y-20206209D02*
X8579907Y-20225256D01*
X8579907Y-20225256D02*
X8570383Y-20234780D01*
X8570383Y-20234780D02*
X8551336Y-20244304D01*
X8551336Y-20244304D02*
X8532288Y-20244304D01*
X8532288Y-20244304D02*
X8513240Y-20234780D01*
X8513240Y-20234780D02*
X8503716Y-20225256D01*
X8503716Y-20225256D02*
X8494193Y-20206209D01*
X8494193Y-20206209D02*
X8484669Y-20168114D01*
X8484669Y-20168114D02*
X8484669Y-20120495D01*
X8484669Y-20120495D02*
X8494193Y-20082399D01*
X8494193Y-20082399D02*
X8503716Y-20063352D01*
X8503716Y-20063352D02*
X8513240Y-20053828D01*
X8513240Y-20053828D02*
X8532288Y-20044304D01*
X8722764Y-20044304D02*
X8741812Y-20044304D01*
X8741812Y-20044304D02*
X8760859Y-20053828D01*
X8760859Y-20053828D02*
X8770383Y-20063352D01*
X8770383Y-20063352D02*
X8779907Y-20082399D01*
X8779907Y-20082399D02*
X8789431Y-20120495D01*
X8789431Y-20120495D02*
X8789431Y-20168114D01*
X8789431Y-20168114D02*
X8779907Y-20206209D01*
X8779907Y-20206209D02*
X8770383Y-20225256D01*
X8770383Y-20225256D02*
X8760859Y-20234780D01*
X8760859Y-20234780D02*
X8741812Y-20244304D01*
X8741812Y-20244304D02*
X8722764Y-20244304D01*
X8722764Y-20244304D02*
X8703716Y-20234780D01*
X8703716Y-20234780D02*
X8694193Y-20225256D01*
X8694193Y-20225256D02*
X8684669Y-20206209D01*
X8684669Y-20206209D02*
X8675145Y-20168114D01*
X8675145Y-20168114D02*
X8675145Y-20120495D01*
X8675145Y-20120495D02*
X8684669Y-20082399D01*
X8684669Y-20082399D02*
X8694193Y-20063352D01*
X8694193Y-20063352D02*
X8703716Y-20053828D01*
X8703716Y-20053828D02*
X8722764Y-20044304D01*
X9027526Y-20244304D02*
X9027526Y-20044304D01*
X9113240Y-20244304D02*
X9113240Y-20139542D01*
X9113240Y-20139542D02*
X9103717Y-20120495D01*
X9103717Y-20120495D02*
X9084669Y-20110971D01*
X9084669Y-20110971D02*
X9056097Y-20110971D01*
X9056097Y-20110971D02*
X9037050Y-20120495D01*
X9037050Y-20120495D02*
X9027526Y-20130018D01*
X9237050Y-20244304D02*
X9218002Y-20234780D01*
X9218002Y-20234780D02*
X9208478Y-20225256D01*
X9208478Y-20225256D02*
X9198955Y-20206209D01*
X9198955Y-20206209D02*
X9198955Y-20149066D01*
X9198955Y-20149066D02*
X9208478Y-20130018D01*
X9208478Y-20130018D02*
X9218002Y-20120495D01*
X9218002Y-20120495D02*
X9237050Y-20110971D01*
X9237050Y-20110971D02*
X9265621Y-20110971D01*
X9265621Y-20110971D02*
X9284669Y-20120495D01*
X9284669Y-20120495D02*
X9294193Y-20130018D01*
X9294193Y-20130018D02*
X9303717Y-20149066D01*
X9303717Y-20149066D02*
X9303717Y-20206209D01*
X9303717Y-20206209D02*
X9294193Y-20225256D01*
X9294193Y-20225256D02*
X9284669Y-20234780D01*
X9284669Y-20234780D02*
X9265621Y-20244304D01*
X9265621Y-20244304D02*
X9237050Y-20244304D01*
X9418002Y-20244304D02*
X9398955Y-20234780D01*
X9398955Y-20234780D02*
X9389431Y-20215733D01*
X9389431Y-20215733D02*
X9389431Y-20044304D01*
X9570383Y-20234780D02*
X9551336Y-20244304D01*
X9551336Y-20244304D02*
X9513240Y-20244304D01*
X9513240Y-20244304D02*
X9494193Y-20234780D01*
X9494193Y-20234780D02*
X9484669Y-20215733D01*
X9484669Y-20215733D02*
X9484669Y-20139542D01*
X9484669Y-20139542D02*
X9494193Y-20120495D01*
X9494193Y-20120495D02*
X9513240Y-20110971D01*
X9513240Y-20110971D02*
X9551336Y-20110971D01*
X9551336Y-20110971D02*
X9570383Y-20120495D01*
X9570383Y-20120495D02*
X9579907Y-20139542D01*
X9579907Y-20139542D02*
X9579907Y-20158590D01*
X9579907Y-20158590D02*
X9484669Y-20177637D01*
X9656098Y-20234780D02*
X9675145Y-20244304D01*
X9675145Y-20244304D02*
X9713240Y-20244304D01*
X9713240Y-20244304D02*
X9732288Y-20234780D01*
X9732288Y-20234780D02*
X9741812Y-20215733D01*
X9741812Y-20215733D02*
X9741812Y-20206209D01*
X9741812Y-20206209D02*
X9732288Y-20187161D01*
X9732288Y-20187161D02*
X9713240Y-20177637D01*
X9713240Y-20177637D02*
X9684669Y-20177637D01*
X9684669Y-20177637D02*
X9665621Y-20168114D01*
X9665621Y-20168114D02*
X9656098Y-20149066D01*
X9656098Y-20149066D02*
X9656098Y-20139542D01*
X9656098Y-20139542D02*
X9665621Y-20120495D01*
X9665621Y-20120495D02*
X9684669Y-20110971D01*
X9684669Y-20110971D02*
X9713240Y-20110971D01*
X9713240Y-20110971D02*
X9732288Y-20120495D01*
X9808479Y-20320495D02*
X9818002Y-20310971D01*
X9818002Y-20310971D02*
X9837050Y-20282399D01*
X9837050Y-20282399D02*
X9846574Y-20263352D01*
X9846574Y-20263352D02*
X9856098Y-20234780D01*
X9856098Y-20234780D02*
X9865621Y-20187161D01*
X9865621Y-20187161D02*
X9865621Y-20149066D01*
X9865621Y-20149066D02*
X9856098Y-20101447D01*
X9856098Y-20101447D02*
X9846574Y-20072876D01*
X9846574Y-20072876D02*
X9837050Y-20053828D01*
X9837050Y-20053828D02*
X9818002Y-20025256D01*
X9818002Y-20025256D02*
X9808479Y-20015733D01*
M02*
