%TF.GenerationSoftware,KiCad,Pcbnew,7.0.2*%
%TF.CreationDate,2024-09-11T18:36:25+10:00*%
%TF.ProjectId,keyboard,6b657962-6f61-4726-942e-6b696361645f,v1.0.0*%
%TF.SameCoordinates,Original*%
%TF.FileFunction,Soldermask,Top*%
%TF.FilePolarity,Negative*%
%FSLAX46Y46*%
G04 Gerber Fmt 4.6, Leading zero omitted, Abs format (unit mm)*
G04 Created by KiCad (PCBNEW 7.0.2) date 2024-09-11 18:36:25*
%MOMM*%
%LPD*%
G01*
G04 APERTURE LIST*
G04 Aperture macros list*
%AMRoundRect*
0 Rectangle with rounded corners*
0 $1 Rounding radius*
0 $2 $3 $4 $5 $6 $7 $8 $9 X,Y pos of 4 corners*
0 Add a 4 corners polygon primitive as box body*
4,1,4,$2,$3,$4,$5,$6,$7,$8,$9,$2,$3,0*
0 Add four circle primitives for the rounded corners*
1,1,$1+$1,$2,$3*
1,1,$1+$1,$4,$5*
1,1,$1+$1,$6,$7*
1,1,$1+$1,$8,$9*
0 Add four rect primitives between the rounded corners*
20,1,$1+$1,$2,$3,$4,$5,0*
20,1,$1+$1,$4,$5,$6,$7,0*
20,1,$1+$1,$6,$7,$8,$9,0*
20,1,$1+$1,$8,$9,$2,$3,0*%
G04 Aperture macros list end*
%ADD10C,1.701800*%
%ADD11C,3.429000*%
%ADD12C,0.990600*%
%ADD13C,2.032000*%
%ADD14C,0.650000*%
%ADD15RoundRect,0.500000X0.000000X-0.300000X0.000000X-0.300000X0.000000X0.300000X0.000000X0.300000X0*%
%ADD16RoundRect,0.500000X0.000000X-0.600000X0.000000X-0.600000X0.000000X0.600000X0.000000X0.600000X0*%
G04 APERTURE END LIST*
D10*
%TO.C,SW41*%
X309997889Y-159127805D03*
D11*
X315377701Y-157984291D03*
D12*
X319610402Y-152790772D03*
D10*
X320757513Y-156840777D03*
D13*
X316604380Y-163755362D03*
X311277027Y-162740810D03*
%TD*%
D10*
%TO.C,SW38*%
X298146922Y-103373392D03*
D11*
X303526734Y-102229878D03*
D12*
X307759435Y-97036359D03*
D10*
X308906546Y-101086364D03*
D13*
X304753413Y-108000949D03*
X299426060Y-106986397D03*
%TD*%
D10*
%TO.C,SW47*%
X344256734Y-137533094D03*
D11*
X349636546Y-136389580D03*
D12*
X353869247Y-131196061D03*
D10*
X355016358Y-135246066D03*
D13*
X350863225Y-142160651D03*
X345535872Y-141146099D03*
%TD*%
D10*
%TO.C,SW50*%
X363257362Y-135539067D03*
D11*
X368637174Y-134395553D03*
D12*
X372869875Y-129202034D03*
D10*
X374016986Y-133252039D03*
D13*
X369863853Y-140166624D03*
X364536500Y-139152072D03*
%TD*%
D10*
%TO.C,SW49*%
X359307039Y-116954263D03*
D11*
X364686851Y-115810749D03*
D12*
X368919552Y-110617230D03*
D10*
X370066663Y-114667235D03*
D13*
X365913530Y-121581820D03*
X360586177Y-120567268D03*
%TD*%
D10*
%TO.C,SW26*%
X168266065Y-173611179D03*
D11*
X173166601Y-176108127D03*
D12*
X179724415Y-174735730D03*
D10*
X178067137Y-178605075D03*
D13*
X170488057Y-181365065D03*
X166986404Y-177223999D03*
%TD*%
D10*
%TO.C,SW32*%
X268981913Y-148932719D03*
D11*
X274361725Y-147789205D03*
D12*
X278594426Y-142595686D03*
D10*
X279741537Y-146645691D03*
D13*
X275588404Y-153560276D03*
X270261051Y-152545724D03*
%TD*%
D10*
%TO.C,SW1*%
X241248995Y-109844546D03*
D11*
X246628807Y-108701032D03*
D12*
X250861508Y-103507513D03*
D10*
X252008619Y-107557518D03*
D13*
X247855486Y-114472103D03*
X242528133Y-113457551D03*
%TD*%
D10*
%TO.C,SW16*%
X130130319Y-126066859D03*
D11*
X135510131Y-127210373D03*
D12*
X141489291Y-124187452D03*
D10*
X140889943Y-128353887D03*
D13*
X134283452Y-132981444D03*
X129829329Y-129887775D03*
%TD*%
D10*
%TO.C,SW6*%
X73856127Y-116661262D03*
D11*
X79235939Y-117804776D03*
D12*
X85215099Y-114781855D03*
D10*
X84615751Y-118948290D03*
D13*
X78009260Y-123575847D03*
X73555137Y-120482178D03*
%TD*%
D10*
%TO.C,SW15*%
X134080641Y-107482055D03*
D11*
X139460453Y-108625569D03*
D12*
X145439613Y-105602648D03*
D10*
X144840265Y-109769083D03*
D13*
X138233774Y-114396640D03*
X133779651Y-111302971D03*
%TD*%
D10*
%TO.C,SW8*%
X96911033Y-99581411D03*
D11*
X102290845Y-100724925D03*
D12*
X108270005Y-97702004D03*
D10*
X107670657Y-101868439D03*
D13*
X101064166Y-106495996D03*
X96610043Y-103402327D03*
%TD*%
D10*
%TO.C,SW45*%
X336356089Y-100363486D03*
D11*
X341735901Y-99219972D03*
D12*
X345968602Y-94026453D03*
D10*
X347115713Y-98076458D03*
D13*
X342962580Y-104991043D03*
X337635227Y-103976491D03*
%TD*%
D10*
%TO.C,SW42*%
X317251506Y-101868439D03*
D11*
X322631318Y-100724925D03*
D12*
X326864019Y-95531406D03*
D10*
X328011130Y-99581411D03*
D13*
X323857997Y-106495996D03*
X318530644Y-105481444D03*
%TD*%
D10*
%TO.C,SW4*%
X50905177Y-133252039D03*
D11*
X56284989Y-134395553D03*
D12*
X62264149Y-131372632D03*
D10*
X61664801Y-135539067D03*
D13*
X55058310Y-140166624D03*
X50604187Y-137072955D03*
%TD*%
D10*
%TO.C,SW13*%
X108114972Y-138255973D03*
D11*
X113494784Y-139399487D03*
D12*
X119473944Y-136376566D03*
D10*
X118874596Y-140543001D03*
D13*
X112268105Y-145170558D03*
X107813982Y-142076889D03*
%TD*%
D10*
%TO.C,SW2*%
X58805821Y-96082431D03*
D11*
X64185633Y-97225945D03*
D12*
X70164793Y-94203024D03*
D10*
X69565445Y-98369459D03*
D13*
X62958954Y-102997016D03*
X58504831Y-99903347D03*
%TD*%
D10*
%TO.C,SW22*%
X141230303Y-165230495D03*
D11*
X146610115Y-166374009D03*
D12*
X152589275Y-163351088D03*
D10*
X151989927Y-167517523D03*
D13*
X145383436Y-172145080D03*
X140929313Y-169051411D03*
%TD*%
D10*
%TO.C,SW25*%
X165012900Y-144727127D03*
D11*
X170392712Y-145870641D03*
D12*
X176371872Y-142847720D03*
D10*
X175772524Y-147014155D03*
D13*
X169166033Y-151641712D03*
X164711910Y-148548043D03*
%TD*%
D10*
%TO.C,SW36*%
X287982541Y-146938692D03*
D11*
X293362353Y-145795178D03*
D12*
X297595054Y-140601659D03*
D10*
X298742165Y-144651664D03*
D13*
X294589032Y-151566249D03*
X289261679Y-150551697D03*
%TD*%
D10*
%TO.C,SW24*%
X168963222Y-126142323D03*
D11*
X174343034Y-127285837D03*
D12*
X180322194Y-124262916D03*
D10*
X179722846Y-128429351D03*
D13*
X173116355Y-133056908D03*
X168662232Y-129963239D03*
%TD*%
D10*
%TO.C,SW20*%
X149130947Y-128060886D03*
D11*
X154510759Y-129204400D03*
D12*
X160489919Y-126181479D03*
D10*
X159890571Y-130347914D03*
D13*
X153284080Y-134975471D03*
X148829957Y-131881802D03*
%TD*%
D10*
%TO.C,SW11*%
X116015616Y-101086364D03*
D11*
X121395428Y-102229878D03*
D12*
X127374588Y-99206957D03*
D10*
X126775240Y-103373392D03*
D13*
X120168749Y-108000949D03*
X115714626Y-104907280D03*
%TD*%
D10*
%TO.C,SW46*%
X340306412Y-118948290D03*
D11*
X345686224Y-117804776D03*
D12*
X349918925Y-112611257D03*
D10*
X351066036Y-116661262D03*
D13*
X346912903Y-123575847D03*
X341585550Y-122561295D03*
%TD*%
D10*
%TO.C,SW14*%
X104164650Y-156840777D03*
D11*
X109544462Y-157984291D03*
D12*
X115523622Y-154961370D03*
D10*
X114924274Y-159127805D03*
D13*
X108317783Y-163755362D03*
X103863660Y-160661693D03*
%TD*%
D10*
%TO.C,SW27*%
X245199317Y-128429351D03*
D11*
X250579129Y-127285837D03*
D12*
X254811830Y-122092318D03*
D10*
X255958941Y-126142323D03*
D13*
X251805808Y-133056908D03*
X246478455Y-132042356D03*
%TD*%
D10*
%TO.C,SW37*%
X291932863Y-165523496D03*
D11*
X297312675Y-164379982D03*
D12*
X301545376Y-159186463D03*
D10*
X302692487Y-163236468D03*
D13*
X298539354Y-170151053D03*
X293212001Y-169136501D03*
%TD*%
D10*
%TO.C,SW18*%
X122229675Y-163236468D03*
D11*
X127609487Y-164379982D03*
D12*
X133588647Y-161357061D03*
D10*
X132989299Y-165523496D03*
D13*
X126382808Y-170151053D03*
X121928685Y-167057384D03*
%TD*%
D10*
%TO.C,SW28*%
X249149639Y-147014155D03*
D11*
X254529451Y-145870641D03*
D12*
X258762152Y-140677122D03*
D10*
X259909263Y-144727127D03*
D13*
X255756130Y-151641712D03*
X250428777Y-150627160D03*
%TD*%
D10*
%TO.C,SW39*%
X302097244Y-121958196D03*
D11*
X307477056Y-120814682D03*
D12*
X311709757Y-115621163D03*
D10*
X312856868Y-119671168D03*
D13*
X308703735Y-126585753D03*
X303376382Y-125571201D03*
%TD*%
D10*
%TO.C,SW23*%
X172913544Y-107557518D03*
D11*
X178293356Y-108701032D03*
D12*
X184272516Y-105678111D03*
D10*
X183673168Y-109844546D03*
D13*
X177066677Y-114472103D03*
X172612554Y-111378434D03*
%TD*%
D10*
%TO.C,SW12*%
X112065294Y-119671168D03*
D11*
X117445106Y-120814682D03*
D12*
X123424266Y-117791761D03*
D10*
X122824918Y-121958196D03*
D13*
X116218427Y-126585753D03*
X111764304Y-123492084D03*
%TD*%
D10*
%TO.C,SW48*%
X355356717Y-98369459D03*
D11*
X360736529Y-97225945D03*
D12*
X364969230Y-92032426D03*
D10*
X366116341Y-96082431D03*
D13*
X361963208Y-102997016D03*
X356635855Y-101982464D03*
%TD*%
D10*
%TO.C,SW29*%
X246855025Y-178605075D03*
D11*
X251755561Y-176108127D03*
D12*
X254499855Y-169996069D03*
D10*
X256656097Y-173611179D03*
D13*
X254434105Y-181365065D03*
X249025692Y-181763904D03*
%TD*%
D10*
%TO.C,SW31*%
X265031591Y-130347914D03*
D11*
X270411403Y-129204400D03*
D12*
X274644104Y-124010881D03*
D10*
X275791215Y-128060886D03*
D13*
X271638082Y-134975471D03*
X266310729Y-133960919D03*
%TD*%
D10*
%TO.C,SW44*%
X325152150Y-139038047D03*
D11*
X330531962Y-137894533D03*
D12*
X334764663Y-132701014D03*
D10*
X335911774Y-136751019D03*
D13*
X331758641Y-143665604D03*
X326431288Y-142651052D03*
%TD*%
D10*
%TO.C,SW5*%
X77806449Y-98076458D03*
D11*
X83186261Y-99219972D03*
D12*
X89165421Y-96197051D03*
D10*
X88566073Y-100363486D03*
D13*
X81959582Y-104991043D03*
X77505459Y-101897374D03*
%TD*%
D10*
%TO.C,SW3*%
X54855499Y-114667235D03*
D11*
X60235311Y-115810749D03*
D12*
X66214471Y-112787828D03*
D10*
X65615123Y-116954263D03*
D13*
X59008632Y-121581820D03*
X54554509Y-118488151D03*
%TD*%
D10*
%TO.C,SW35*%
X284032219Y-128353887D03*
D11*
X289412031Y-127210373D03*
D12*
X293644732Y-122016854D03*
D10*
X294791843Y-126066859D03*
D13*
X290638710Y-132981444D03*
X285311357Y-131966892D03*
%TD*%
D10*
%TO.C,SW43*%
X321201828Y-120453243D03*
D11*
X326581640Y-119309729D03*
D12*
X330814341Y-114116210D03*
D10*
X331961452Y-118166215D03*
D13*
X327808319Y-125080800D03*
X322480966Y-124066248D03*
%TD*%
D10*
%TO.C,SW7*%
X69905805Y-135246066D03*
D11*
X75285617Y-136389580D03*
D12*
X81264777Y-133366659D03*
D10*
X80665429Y-137533094D03*
D13*
X74058938Y-142160651D03*
X69604815Y-139066982D03*
%TD*%
D10*
%TO.C,SW40*%
X306047566Y-140543001D03*
D11*
X311427378Y-139399487D03*
D12*
X315660079Y-134205968D03*
D10*
X316807190Y-138255973D03*
D13*
X312654057Y-145170558D03*
X307326704Y-144156006D03*
%TD*%
D10*
%TO.C,SW21*%
X145180625Y-146645691D03*
D11*
X150560437Y-147789205D03*
D12*
X156539597Y-144766284D03*
D10*
X155940249Y-148932719D03*
D13*
X149333758Y-153560276D03*
X144879635Y-150466607D03*
%TD*%
D10*
%TO.C,SW10*%
X89010388Y-136751019D03*
D11*
X94390200Y-137894533D03*
D12*
X100369360Y-134871612D03*
D10*
X99770012Y-139038047D03*
D13*
X93163521Y-143665604D03*
X88709398Y-140571935D03*
%TD*%
D10*
%TO.C,SW34*%
X280081897Y-109769083D03*
D11*
X285461709Y-108625569D03*
D12*
X289694410Y-103432050D03*
D10*
X290841521Y-107482055D03*
D13*
X286688388Y-114396640D03*
X281361035Y-113382088D03*
%TD*%
D10*
%TO.C,SW33*%
X272932236Y-167517523D03*
D11*
X278312048Y-166374009D03*
D12*
X282544749Y-161180490D03*
D10*
X283691860Y-165230495D03*
D13*
X279538727Y-172145080D03*
X274211374Y-171130528D03*
%TD*%
D10*
%TO.C,SW30*%
X261081269Y-111763110D03*
D11*
X266461081Y-110619596D03*
D12*
X270693782Y-105426077D03*
D10*
X271840893Y-109476082D03*
D13*
X267687760Y-116390667D03*
X262360407Y-115376115D03*
%TD*%
D10*
%TO.C,SW17*%
X126179997Y-144651664D03*
D11*
X131559809Y-145795178D03*
D12*
X137538969Y-142772257D03*
D10*
X136939621Y-146938692D03*
D13*
X130333130Y-151566249D03*
X125879007Y-148472580D03*
%TD*%
D10*
%TO.C,SW9*%
X92960711Y-118166215D03*
D11*
X98340523Y-119309729D03*
D12*
X104319683Y-116286808D03*
D10*
X103720335Y-120453243D03*
D13*
X97113844Y-125080800D03*
X92659721Y-121987131D03*
%TD*%
D10*
%TO.C,SW19*%
X153081269Y-109476082D03*
D11*
X158461081Y-110619596D03*
D12*
X164440241Y-107596675D03*
D10*
X163840893Y-111763110D03*
D13*
X157234402Y-116390667D03*
X152780279Y-113296998D03*
%TD*%
D14*
%TO.C,J1*%
X209527159Y-104562500D03*
X215327159Y-104562500D03*
D15*
X208107159Y-100912500D03*
D16*
X208107159Y-105092500D03*
D15*
X216747159Y-100912500D03*
D16*
X216747159Y-105092500D03*
%TD*%
M02*
