<svg width="331.922mm" height="102.147mm" viewBox="0 0 331.922 102.147" xmlns="http://www.w3.org/2000/svg"><g id="svgGroup" stroke-linecap="round" fill-rule="evenodd" font-size="9pt" stroke="#000" stroke-width="0.25mm" fill="none" style="stroke:#000;stroke-width:0.25mm;fill:none"><path d="M 118.383 75.187 L 142.441 87.445 L 134.95 102.147 L 110.893 89.889 L 118.383 75.187 Z M 189.482 87.445 L 213.539 75.187 L 221.03 89.889 L 196.972 102.147 L 189.482 87.445 Z M 233.127 33.415 L 249.266 29.984 L 252.697 46.124 L 236.558 49.554 L 233.127 33.415 Z M 229.177 14.83 L 245.316 11.4 L 248.747 27.539 L 232.607 30.97 L 229.177 14.83 Z M 82.656 29.984 L 98.795 33.415 L 95.365 49.554 L 79.225 46.124 L 82.656 29.984 Z M 86.606 11.4 L 102.745 14.83 L 99.315 30.97 L 83.175 27.539 L 86.606 11.4 Z M 93.756 69.148 L 109.895 72.579 L 106.465 88.718 L 90.325 85.287 L 93.756 69.148 Z M 97.706 50.563 L 113.845 53.994 L 110.415 70.133 L 94.275 66.703 L 97.706 50.563 Z M 259.093 64.189 L 275.232 60.758 L 278.663 76.898 L 262.523 80.328 L 259.093 64.189 Z M 255.142 45.604 L 271.282 42.174 L 274.712 58.313 L 258.573 61.744 L 255.142 45.604 Z M 251.192 27.019 L 267.332 23.589 L 270.762 39.728 L 254.623 43.159 L 251.192 27.019 Z M 247.242 8.434 L 263.381 5.004 L 266.812 21.143 L 250.672 24.574 L 247.242 8.434 Z M 241.028 70.585 L 257.167 67.154 L 260.598 83.293 L 244.458 86.724 L 241.028 70.585 Z M 237.077 52 L 253.217 48.569 L 256.647 64.709 L 240.508 68.139 L 237.077 52 Z M 222.027 72.579 L 238.166 69.148 L 241.597 85.287 L 225.458 88.718 L 222.027 72.579 Z M 218.077 53.994 L 234.216 50.563 L 237.647 66.703 L 221.507 70.133 L 218.077 53.994 Z M 210.176 16.824 L 226.316 13.394 L 229.746 29.533 L 213.607 32.964 L 210.176 16.824 Z M 198.244 52.075 L 214.384 48.645 L 217.814 64.784 L 201.675 68.215 L 198.244 52.075 Z M 194.294 33.49 L 210.434 30.06 L 213.864 46.199 L 197.725 49.63 L 194.294 33.49 Z M 190.344 14.906 L 206.483 11.475 L 209.914 27.615 L 193.774 31.045 L 190.344 14.906 Z M 3.431 37.17 L 19.57 40.6 L 16.139 56.74 L 0 53.309 L 3.431 37.17 Z M 7.381 18.585 L 23.52 22.015 L 20.09 38.155 L 3.95 34.724 L 7.381 18.585 Z M 11.331 0 L 27.471 3.431 L 24.04 19.57 L 7.901 16.139 L 11.331 0 Z M 22.431 39.164 L 38.571 42.594 L 35.14 58.734 L 19.001 55.303 L 22.431 39.164 Z M 26.381 20.579 L 42.521 24.009 L 39.09 40.149 L 22.951 36.718 L 26.381 20.579 Z M 30.332 1.994 L 46.471 5.425 L 43.041 21.564 L 26.901 18.133 L 30.332 1.994 Z M 41.536 40.669 L 57.675 44.099 L 54.245 60.239 L 38.105 56.808 L 41.536 40.669 Z M 45.486 22.084 L 61.626 25.514 L 58.195 41.654 L 42.056 38.223 L 45.486 22.084 Z M 49.436 3.499 L 65.576 6.93 L 62.145 23.069 L 46.006 19.638 L 49.436 3.499 Z M 56.69 60.758 L 72.829 64.189 L 69.399 80.328 L 53.259 76.898 L 56.69 60.758 Z M 60.64 42.174 L 76.78 45.604 L 73.349 61.744 L 57.21 58.313 L 60.64 42.174 Z M 64.591 23.589 L 80.73 27.019 L 77.3 43.159 L 61.16 39.728 L 64.591 23.589 Z M 68.541 5.004 L 84.68 8.434 L 81.25 24.574 L 65.11 21.143 L 68.541 5.004 Z M 101.656 31.978 L 117.796 35.409 L 114.365 51.548 L 98.226 48.118 L 101.656 31.978 Z M 121.489 30.06 L 137.628 33.49 L 134.197 49.63 L 118.058 46.199 L 121.489 30.06 Z M 214.126 35.409 L 230.266 31.978 L 233.696 48.118 L 217.557 51.548 L 214.126 35.409 Z M 74.755 67.154 L 90.894 70.585 L 87.464 86.724 L 71.324 83.293 L 74.755 67.154 Z M 78.705 48.569 L 94.845 52 L 91.414 68.139 L 75.275 64.709 L 78.705 48.569 Z M 105.607 13.394 L 121.746 16.824 L 118.316 32.964 L 102.176 29.533 L 105.607 13.394 Z M 117.538 48.645 L 133.678 52.075 L 130.247 68.215 L 114.108 64.784 L 117.538 48.645 Z M 125.439 11.475 L 141.578 14.906 L 138.148 31.045 L 122.008 27.615 L 125.439 11.475 Z M 312.352 40.6 L 328.492 37.17 L 331.922 53.309 L 315.783 56.74 L 312.352 40.6 Z M 308.402 22.015 L 324.541 18.585 L 327.972 34.724 L 311.832 38.155 L 308.402 22.015 Z M 304.452 3.431 L 320.591 0 L 324.022 16.139 L 307.882 19.57 L 304.452 3.431 Z M 293.352 42.594 L 309.491 39.164 L 312.922 55.303 L 296.782 58.734 L 293.352 42.594 Z M 289.401 24.009 L 305.541 20.579 L 308.971 36.718 L 292.832 40.149 L 289.401 24.009 Z M 285.451 5.425 L 301.59 1.994 L 305.021 18.133 L 288.881 21.564 L 285.451 5.425 Z M 274.247 44.099 L 290.386 40.669 L 293.817 56.808 L 277.678 60.239 L 274.247 44.099 Z M 270.297 25.514 L 286.436 22.084 L 289.867 38.223 L 273.727 41.654 L 270.297 25.514 Z M 266.346 6.93 L 282.486 3.499 L 285.916 19.638 L 269.777 23.069 L 266.346 6.93 Z" vector-effect="non-scaling-stroke"/></g></svg>