0
SECTION
2
HEADER
9
$INSUNITS
70
4
0
ENDSEC
0
SECTION
2
TABLES
0
TABLE
2
LTYPE
0
LTYPE
72
65
70
64
2
CONTINUOUS
3
______
73
0
40
0
0
ENDTAB
0
TABLE
2
LAYER
0
ENDTAB
0
ENDSEC
0
SECTION
2
ENTITIES
0
LINE
8
0
10
-2.4041242
20
28.3697936
11
13.7353113
21
24.9392507
0
LINE
8
0
10
13.7353113
20
24.9392507
11
10.3047684
21
8.7998152
0
LINE
8
0
10
10.3047684
20
8.7998152
11
-5.8346671
21
12.2303581
0
LINE
8
0
10
-5.8346671
20
12.2303581
11
-2.4041242
21
28.3697936
0
LINE
8
0
10
1.546198
20
46.954598
11
17.6856335
21
43.5240551
0
LINE
8
0
10
17.6856335
20
43.5240551
11
14.2550906
21
27.3846196
0
LINE
8
0
10
14.2550906
20
27.3846196
11
-1.8843449
21
30.8151625
0
LINE
8
0
10
-1.8843449
20
30.8151625
11
1.546198
21
46.954598
0
LINE
8
0
10
5.4965201
20
65.5394024
11
21.6359556
21
62.1088595
0
LINE
8
0
10
21.6359556
20
62.1088595
11
18.2054127
21
45.969424
0
LINE
8
0
10
18.2054127
20
45.969424
11
2.0659772
21
49.3999669
0
LINE
8
0
10
2.0659772
20
49.3999669
11
5.4965201
21
65.5394024
0
LINE
8
0
10
16.5965036
20
26.3757667
11
32.7359391
21
22.9452238
0
LINE
8
0
10
32.7359391
20
22.9452238
11
29.3053962
21
6.8057883
0
LINE
8
0
10
29.3053962
20
6.8057883
11
13.1659607
21
10.2363312
0
LINE
8
0
10
13.1659607
20
10.2363312
11
16.5965036
21
26.3757667
0
LINE
8
0
10
20.5468257
20
44.9605711
11
36.6862612
21
41.5300282
0
LINE
8
0
10
36.6862612
20
41.5300282
11
33.2557183
21
25.3905927
0
LINE
8
0
10
33.2557183
20
25.3905927
11
17.1162828
21
28.8211356
0
LINE
8
0
10
17.1162828
20
28.8211356
11
20.5468257
21
44.9605711
0
LINE
8
0
10
24.4971479
20
63.5453755
11
40.6365834
21
60.1148326
0
LINE
8
0
10
40.6365834
20
60.1148326
11
37.2060405
21
43.9753971
0
LINE
8
0
10
37.2060405
20
43.9753971
11
21.066605
21
47.40594
0
LINE
8
0
10
21.066605
20
47.40594
11
24.4971479
21
63.5453755
0
LINE
8
0
10
35.7010873
20
24.8708136
11
51.8405228
21
21.4402707
0
LINE
8
0
10
51.8405228
20
21.4402707
11
48.4099799
21
5.3008352
0
LINE
8
0
10
48.4099799
20
5.3008352
11
32.2705444
21
8.7313781
0
LINE
8
0
10
32.2705444
20
8.7313781
11
35.7010873
21
24.8708136
0
LINE
8
0
10
39.6514094
20
43.455618
11
55.7908449
21
40.0250751
0
LINE
8
0
10
55.7908449
20
40.0250751
11
52.360302
21
23.8856396
0
LINE
8
0
10
52.360302
20
23.8856396
11
36.2208665
21
27.3161825
0
LINE
8
0
10
36.2208665
20
27.3161825
11
39.6514094
21
43.455618
0
LINE
8
0
10
43.6017315
20
62.0404224
11
59.741167
21
58.6098795
0
LINE
8
0
10
59.741167
20
58.6098795
11
56.3106241
21
42.470444
0
LINE
8
0
10
56.3106241
20
42.470444
11
40.1711886
21
45.9009869
0
LINE
8
0
10
40.1711886
20
45.9009869
11
43.6017315
21
62.0404224
0
LINE
8
0
10
50.8553488
20
4.781056
11
66.9947843
21
1.3505131
0
LINE
8
0
10
66.9947843
20
1.3505131
11
63.5642414
21
-14.7889224
0
LINE
8
0
10
63.5642414
20
-14.7889224
11
47.4248059
21
-11.3583795
0
LINE
8
0
10
47.4248059
20
-11.3583795
11
50.8553488
21
4.781056
0
LINE
8
0
10
54.8056709
20
23.3658604
11
70.9451064
21
19.9353175
0
LINE
8
0
10
70.9451064
20
19.9353175
11
67.5145635
21
3.795882
0
LINE
8
0
10
67.5145635
20
3.795882
11
51.375128
21
7.2264249
0
LINE
8
0
10
51.375128
20
7.2264249
11
54.8056709
21
23.3658604
0
LINE
8
0
10
58.755993
20
41.9506649
11
74.8954285
21
38.520122
0
LINE
8
0
10
74.8954285
20
38.520122
11
71.4648856
21
22.3806865
0
LINE
8
0
10
71.4648856
20
22.3806865
11
55.3254501
21
25.8112294
0
LINE
8
0
10
55.3254501
20
25.8112294
11
58.755993
21
41.9506649
0
LINE
8
0
10
62.7063152
20
60.5354693
11
78.8457507
21
57.1049264
0
LINE
8
0
10
78.8457507
20
57.1049264
11
75.4152078
21
40.9654909
0
LINE
8
0
10
75.4152078
20
40.9654909
11
59.2757723
21
44.3960338
0
LINE
8
0
10
59.2757723
20
44.3960338
11
62.7063152
21
60.5354693
0
LINE
8
0
10
68.920374
20
-1.6146351
11
85.0598095
21
-5.045178
0
LINE
8
0
10
85.0598095
20
-5.045178
11
81.6292666
21
-21.1846135
0
LINE
8
0
10
81.6292666
20
-21.1846135
11
65.4898311
21
-17.7540706
0
LINE
8
0
10
65.4898311
20
-17.7540706
11
68.920374
21
-1.6146351
0
LINE
8
0
10
72.8706961
20
16.9701693
11
89.0101316
21
13.5396264
0
LINE
8
0
10
89.0101316
20
13.5396264
11
85.5795887
21
-2.5998091
0
LINE
8
0
10
85.5795887
20
-2.5998091
11
69.4401532
21
0.8307338
0
LINE
8
0
10
69.4401532
20
0.8307338
11
72.8706961
21
16.9701693
0
LINE
8
0
10
76.8210182
20
35.5549737
11
92.9604537
21
32.1244308
0
LINE
8
0
10
92.9604537
20
32.1244308
11
89.5299108
21
15.9849953
0
LINE
8
0
10
89.5299108
20
15.9849953
11
73.3904753
21
19.4155382
0
LINE
8
0
10
73.3904753
20
19.4155382
11
76.8210182
21
35.5549737
0
LINE
8
0
10
80.7713403
20
54.1397781
11
96.9107758
21
50.7092352
0
LINE
8
0
10
96.9107758
20
50.7092352
11
93.4802329
21
34.5697997
0
LINE
8
0
10
93.4802329
20
34.5697997
11
77.3407974
21
38.0003426
0
LINE
8
0
10
77.3407974
20
38.0003426
11
80.7713403
21
54.1397781
0
LINE
8
0
10
87.9210018
20
-3.608662
11
104.0604373
21
-7.0392049
0
LINE
8
0
10
104.0604373
20
-7.0392049
11
100.6298944
21
-23.1786404
0
LINE
8
0
10
100.6298944
20
-23.1786404
11
84.4904589
21
-19.7480975
0
LINE
8
0
10
84.4904589
20
-19.7480975
11
87.9210018
21
-3.608662
0
LINE
8
0
10
91.8713239
20
14.9761424
11
108.0107594
21
11.5455995
0
LINE
8
0
10
108.0107594
20
11.5455995
11
104.5802165
21
-4.593836
0
LINE
8
0
10
104.5802165
20
-4.593836
11
88.440781
21
-1.1632931
0
LINE
8
0
10
88.440781
20
-1.1632931
11
91.8713239
21
14.9761424
0
LINE
8
0
10
95.821646
20
33.5609468
11
111.9610815
21
30.1304039
0
LINE
8
0
10
111.9610815
20
30.1304039
11
108.5305386
21
13.9909684
0
LINE
8
0
10
108.5305386
20
13.9909684
11
92.3911031
21
17.4215113
0
LINE
8
0
10
92.3911031
20
17.4215113
11
95.821646
21
33.5609468
0
LINE
8
0
10
99.7719681
20
52.1457512
11
115.9114036
21
48.7152083
0
LINE
8
0
10
115.9114036
20
48.7152083
11
112.4808607
21
32.5757728
0
LINE
8
0
10
112.4808607
20
32.5757728
11
96.3414252
21
36.0063157
0
LINE
8
0
10
96.3414252
20
36.0063157
11
99.7719681
21
52.1457512
0
LINE
8
0
10
111.7035984
20
16.8947059
11
127.8430339
21
13.464163
0
LINE
8
0
10
127.8430339
20
13.464163
11
124.412491
21
-2.6752725
0
LINE
8
0
10
124.412491
20
-2.6752725
11
108.2730555
21
0.7552704
0
LINE
8
0
10
108.2730555
20
0.7552704
11
111.7035984
21
16.8947059
0
LINE
8
0
10
115.6539206
20
35.4795103
11
131.7933561
21
32.0489674
0
LINE
8
0
10
131.7933561
20
32.0489674
11
128.3628132
21
15.9095319
0
LINE
8
0
10
128.3628132
20
15.9095319
11
112.2233777
21
19.3400748
0
LINE
8
0
10
112.2233777
20
19.3400748
11
115.6539206
21
35.4795103
0
LINE
8
0
10
119.6042427
20
54.0643147
11
135.7436782
21
50.6337718
0
LINE
8
0
10
135.7436782
20
50.6337718
11
132.3131353
21
34.4943363
0
LINE
8
0
10
132.3131353
20
34.4943363
11
116.1736998
21
37.9248792
0
LINE
8
0
10
116.1736998
20
37.9248792
11
119.6042427
21
54.0643147
0
LINE
8
0
10
112.5487676
20
-9.6480934
11
136.6059438
21
-21.9058369
0
LINE
8
0
10
136.6059438
20
-21.9058369
11
129.1151006
21
-36.6074446
0
LINE
8
0
10
129.1151006
20
-36.6074446
11
105.0579244
21
-24.3497011
0
LINE
8
0
10
105.0579244
20
-24.3497011
11
112.5487676
21
-9.6480934
0
LINE
8
0
10
306.5175175
20
24.9392507
11
322.656953
21
28.3697936
0
LINE
8
0
10
322.656953
20
28.3697936
11
326.0874959
21
12.2303581
0
LINE
8
0
10
326.0874959
20
12.2303581
11
309.9480604
21
8.7998152
0
LINE
8
0
10
309.9480604
20
8.7998152
11
306.5175175
21
24.9392507
0
LINE
8
0
10
302.5671953
20
43.5240551
11
318.7066308
21
46.954598
0
LINE
8
0
10
318.7066308
20
46.954598
11
322.1371737
21
30.8151625
0
LINE
8
0
10
322.1371737
20
30.8151625
11
305.9977382
21
27.3846196
0
LINE
8
0
10
305.9977382
20
27.3846196
11
302.5671953
21
43.5240551
0
LINE
8
0
10
298.6168732
20
62.1088595
11
314.7563087
21
65.5394024
0
LINE
8
0
10
314.7563087
20
65.5394024
11
318.1868516
21
49.3999669
0
LINE
8
0
10
318.1868516
20
49.3999669
11
302.0474161
21
45.969424
0
LINE
8
0
10
302.0474161
20
45.969424
11
298.6168732
21
62.1088595
0
LINE
8
0
10
287.5168897
20
22.9452238
11
303.6563252
21
26.3757667
0
LINE
8
0
10
303.6563252
20
26.3757667
11
307.0868681
21
10.2363312
0
LINE
8
0
10
307.0868681
20
10.2363312
11
290.9474326
21
6.8057883
0
LINE
8
0
10
290.9474326
20
6.8057883
11
287.5168897
21
22.9452238
0
LINE
8
0
10
283.5665676
20
41.5300282
11
299.7060031
21
44.9605711
0
LINE
8
0
10
299.7060031
20
44.9605711
11
303.136546
21
28.8211356
0
LINE
8
0
10
303.136546
20
28.8211356
11
286.9971105
21
25.3905927
0
LINE
8
0
10
286.9971105
20
25.3905927
11
283.5665676
21
41.5300282
0
LINE
8
0
10
279.6162454
20
60.1148326
11
295.7556809
21
63.5453755
0
LINE
8
0
10
295.7556809
20
63.5453755
11
299.1862238
21
47.40594
0
LINE
8
0
10
299.1862238
20
47.40594
11
283.0467883
21
43.9753971
0
LINE
8
0
10
283.0467883
20
43.9753971
11
279.6162454
21
60.1148326
0
LINE
8
0
10
268.412306
20
21.4402707
11
284.5517415
21
24.8708136
0
LINE
8
0
10
284.5517415
20
24.8708136
11
287.9822844
21
8.7313781
0
LINE
8
0
10
287.9822844
20
8.7313781
11
271.8428489
21
5.3008352
0
LINE
8
0
10
271.8428489
20
5.3008352
11
268.412306
21
21.4402707
0
LINE
8
0
10
264.4619839
20
40.0250751
11
280.6014194
21
43.455618
0
LINE
8
0
10
280.6014194
20
43.455618
11
284.0319623
21
27.3161825
0
LINE
8
0
10
284.0319623
20
27.3161825
11
267.8925268
21
23.8856396
0
LINE
8
0
10
267.8925268
20
23.8856396
11
264.4619839
21
40.0250751
0
LINE
8
0
10
260.5116618
20
58.6098795
11
276.6510973
21
62.0404224
0
LINE
8
0
10
276.6510973
20
62.0404224
11
280.0816402
21
45.9009869
0
LINE
8
0
10
280.0816402
20
45.9009869
11
263.9422047
21
42.470444
0
LINE
8
0
10
263.9422047
20
42.470444
11
260.5116618
21
58.6098795
0
LINE
8
0
10
253.2580445
20
1.3505131
11
269.39748
21
4.781056
0
LINE
8
0
10
269.39748
20
4.781056
11
272.8280229
21
-11.3583795
0
LINE
8
0
10
272.8280229
20
-11.3583795
11
256.6885874
21
-14.7889224
0
LINE
8
0
10
256.6885874
20
-14.7889224
11
253.2580445
21
1.3505131
0
LINE
8
0
10
249.3077224
20
19.9353175
11
265.4471579
21
23.3658604
0
LINE
8
0
10
265.4471579
20
23.3658604
11
268.8777008
21
7.2264249
0
LINE
8
0
10
268.8777008
20
7.2264249
11
252.7382653
21
3.795882
0
LINE
8
0
10
252.7382653
20
3.795882
11
249.3077224
21
19.9353175
0
LINE
8
0
10
245.3574003
20
38.520122
11
261.4968358
21
41.9506649
0
LINE
8
0
10
261.4968358
20
41.9506649
11
264.9273787
21
25.8112294
0
LINE
8
0
10
264.9273787
20
25.8112294
11
248.7879432
21
22.3806865
0
LINE
8
0
10
248.7879432
20
22.3806865
11
245.3574003
21
38.520122
0
LINE
8
0
10
241.4070781
20
57.1049264
11
257.5465136
21
60.5354693
0
LINE
8
0
10
257.5465136
20
60.5354693
11
260.9770565
21
44.3960338
0
LINE
8
0
10
260.9770565
20
44.3960338
11
244.837621
21
40.9654909
0
LINE
8
0
10
244.837621
20
40.9654909
11
241.4070781
21
57.1049264
0
LINE
8
0
10
235.1930193
20
-5.045178
11
251.3324548
21
-1.6146351
0
LINE
8
0
10
251.3324548
20
-1.6146351
11
254.7629977
21
-17.7540706
0
LINE
8
0
10
254.7629977
20
-17.7540706
11
238.6235622
21
-21.1846135
0
LINE
8
0
10
238.6235622
20
-21.1846135
11
235.1930193
21
-5.045178
0
LINE
8
0
10
231.2426972
20
13.5396264
11
247.3821327
21
16.9701693
0
LINE
8
0
10
247.3821327
20
16.9701693
11
250.8126756
21
0.8307338
0
LINE
8
0
10
250.8126756
20
0.8307338
11
234.6732401
21
-2.5998091
0
LINE
8
0
10
234.6732401
20
-2.5998091
11
231.2426972
21
13.5396264
0
LINE
8
0
10
227.2923751
20
32.1244308
11
243.4318106
21
35.5549737
0
LINE
8
0
10
243.4318106
20
35.5549737
11
246.8623535
21
19.4155382
0
LINE
8
0
10
246.8623535
20
19.4155382
11
230.722918
21
15.9849953
0
LINE
8
0
10
230.722918
20
15.9849953
11
227.2923751
21
32.1244308
0
LINE
8
0
10
223.342053
20
50.7092352
11
239.4814885
21
54.1397781
0
LINE
8
0
10
239.4814885
20
54.1397781
11
242.9120314
21
38.0003426
0
LINE
8
0
10
242.9120314
20
38.0003426
11
226.7725959
21
34.5697997
0
LINE
8
0
10
226.7725959
20
34.5697997
11
223.342053
21
50.7092352
0
LINE
8
0
10
216.1923915
20
-7.0392049
11
232.331827
21
-3.608662
0
LINE
8
0
10
232.331827
20
-3.608662
11
235.7623699
21
-19.7480975
0
LINE
8
0
10
235.7623699
20
-19.7480975
11
219.6229344
21
-23.1786404
0
LINE
8
0
10
219.6229344
20
-23.1786404
11
216.1923915
21
-7.0392049
0
LINE
8
0
10
212.2420694
20
11.5455995
11
228.3815049
21
14.9761424
0
LINE
8
0
10
228.3815049
20
14.9761424
11
231.8120478
21
-1.1632931
0
LINE
8
0
10
231.8120478
20
-1.1632931
11
215.6726123
21
-4.593836
0
LINE
8
0
10
215.6726123
20
-4.593836
11
212.2420694
21
11.5455995
0
LINE
8
0
10
208.2917473
20
30.1304039
11
224.4311828
21
33.5609468
0
LINE
8
0
10
224.4311828
20
33.5609468
11
227.8617257
21
17.4215113
0
LINE
8
0
10
227.8617257
20
17.4215113
11
211.7222902
21
13.9909684
0
LINE
8
0
10
211.7222902
20
13.9909684
11
208.2917473
21
30.1304039
0
LINE
8
0
10
204.3414252
20
48.7152083
11
220.4808607
21
52.1457512
0
LINE
8
0
10
220.4808607
20
52.1457512
11
223.9114036
21
36.0063157
0
LINE
8
0
10
223.9114036
20
36.0063157
11
207.7719681
21
32.5757728
0
LINE
8
0
10
207.7719681
20
32.5757728
11
204.3414252
21
48.7152083
0
LINE
8
0
10
192.4097949
20
13.464163
11
208.5492304
21
16.8947059
0
LINE
8
0
10
208.5492304
20
16.8947059
11
211.9797733
21
0.7552704
0
LINE
8
0
10
211.9797733
20
0.7552704
11
195.8403378
21
-2.6752725
0
LINE
8
0
10
195.8403378
20
-2.6752725
11
192.4097949
21
13.464163
0
LINE
8
0
10
188.4594727
20
32.0489674
11
204.5989082
21
35.4795103
0
LINE
8
0
10
204.5989082
20
35.4795103
11
208.0294511
21
19.3400748
0
LINE
8
0
10
208.0294511
20
19.3400748
11
191.8900156
21
15.9095319
0
LINE
8
0
10
191.8900156
20
15.9095319
11
188.4594727
21
32.0489674
0
LINE
8
0
10
184.5091506
20
50.6337718
11
200.6485861
21
54.0643147
0
LINE
8
0
10
200.6485861
20
54.0643147
11
204.079129
21
37.9248792
0
LINE
8
0
10
204.079129
20
37.9248792
11
187.9396935
21
34.4943363
0
LINE
8
0
10
187.9396935
20
34.4943363
11
184.5091506
21
50.6337718
0
LINE
8
0
10
183.646885
20
-21.9058369
11
207.7040612
21
-9.6480934
0
LINE
8
0
10
207.7040612
20
-9.6480934
11
215.1949044
21
-24.3497011
0
LINE
8
0
10
215.1949044
20
-24.3497011
11
191.1377282
21
-36.6074446
0
LINE
8
0
10
191.1377282
20
-36.6074446
11
183.646885
21
-21.9058369
0
ENDSEC
0
EOF