M48
; DRILL file {KiCad 7.0.2} date Sat Sep 14 12:24:19 2024
; FORMAT={-:-/ absolute / metric / decimal}
; #@! TF.CreationDate,2024-09-14T12:24:19+10:00
; #@! TF.GenerationSoftware,Kicad,Pcbnew,7.0.2
; #@! TF.FileFunction,NonPlated,1,2,NPTH
FMAT,2
METRIC
; #@! TA.AperFunction,NonPlated,NPTH,ComponentDrill
T1C0.650
; #@! TA.AperFunction,NonPlated,NPTH,ComponentDrill
T2C0.991
; #@! TA.AperFunction,NonPlated,NPTH,ComponentDrill
T3C1.702
; #@! TA.AperFunction,NonPlated,NPTH,ComponentDrill
T4C3.429
%
G90
G05
T1
X209.527Y-104.562
X215.327Y-104.562
T2
X62.264Y-131.373
X66.214Y-112.788
X70.165Y-94.203
X81.265Y-133.367
X85.215Y-114.782
X89.165Y-96.197
X100.369Y-134.872
X104.32Y-116.287
X108.27Y-97.702
X115.524Y-154.961
X119.474Y-136.377
X123.424Y-117.792
X127.375Y-99.207
X133.589Y-161.357
X137.539Y-142.772
X141.489Y-124.187
X145.44Y-105.603
X152.589Y-163.351
X156.54Y-144.766
X160.49Y-126.181
X164.44Y-107.597
X176.372Y-142.848
X179.724Y-174.736
X180.322Y-124.263
X184.273Y-105.678
X250.862Y-103.508
X254.5Y-169.996
X254.812Y-122.092
X258.762Y-140.677
X270.694Y-105.426
X274.644Y-124.011
X278.594Y-142.596
X282.545Y-161.18
X289.694Y-103.432
X293.645Y-122.017
X297.595Y-140.602
X301.545Y-159.186
X307.759Y-97.036
X311.71Y-115.621
X315.66Y-134.206
X319.61Y-152.791
X326.864Y-95.531
X330.814Y-114.116
X334.765Y-132.701
X345.969Y-94.026
X349.919Y-112.611
X353.869Y-131.196
X364.969Y-92.032
X368.92Y-110.617
X372.87Y-129.202
T3
X50.905Y-133.252
X54.855Y-114.667
X58.806Y-96.082
X61.665Y-135.539
X65.615Y-116.954
X69.565Y-98.369
X69.906Y-135.246
X73.856Y-116.661
X77.806Y-98.076
X80.665Y-137.533
X84.616Y-118.948
X88.566Y-100.363
X89.01Y-136.751
X92.961Y-118.166
X96.911Y-99.581
X99.77Y-139.038
X103.72Y-120.453
X104.165Y-156.841
X107.671Y-101.868
X108.115Y-138.256
X112.065Y-119.671
X114.924Y-159.128
X116.016Y-101.086
X118.875Y-140.543
X122.23Y-163.236
X122.825Y-121.958
X126.18Y-144.652
X126.775Y-103.373
X130.13Y-126.067
X132.989Y-165.523
X134.081Y-107.482
X136.94Y-146.939
X140.89Y-128.354
X141.23Y-165.23
X144.84Y-109.769
X145.181Y-146.646
X149.131Y-128.061
X151.99Y-167.518
X153.081Y-109.476
X155.94Y-148.933
X159.891Y-130.348
X163.841Y-111.763
X165.013Y-144.727
X168.266Y-173.611
X168.963Y-126.142
X172.914Y-107.558
X175.773Y-147.014
X178.067Y-178.605
X179.723Y-128.429
X183.673Y-109.845
X241.249Y-109.845
X245.199Y-128.429
X246.855Y-178.605
X249.15Y-147.014
X252.009Y-107.558
X255.959Y-126.142
X256.656Y-173.611
X259.909Y-144.727
X261.081Y-111.763
X265.032Y-130.348
X268.982Y-148.933
X271.841Y-109.476
X272.932Y-167.518
X275.791Y-128.061
X279.742Y-146.646
X280.082Y-109.769
X283.692Y-165.23
X284.032Y-128.354
X287.983Y-146.939
X290.842Y-107.482
X291.933Y-165.523
X294.792Y-126.067
X298.147Y-103.373
X298.742Y-144.652
X302.097Y-121.958
X302.692Y-163.236
X306.048Y-140.543
X308.907Y-101.086
X309.998Y-159.128
X312.857Y-119.671
X316.807Y-138.256
X317.252Y-101.868
X320.758Y-156.841
X321.202Y-120.453
X325.152Y-139.038
X328.011Y-99.581
X331.961Y-118.166
X335.912Y-136.751
X336.356Y-100.363
X340.306Y-118.948
X344.257Y-137.533
X347.116Y-98.076
X351.066Y-116.661
X355.016Y-135.246
X355.357Y-98.369
X359.307Y-116.954
X363.257Y-135.539
X366.116Y-96.082
X370.067Y-114.667
X374.017Y-133.252
T4
X56.285Y-134.396
X60.235Y-115.811
X64.186Y-97.226
X75.286Y-136.39
X79.236Y-117.805
X83.186Y-99.22
X94.39Y-137.895
X98.341Y-119.31
X102.291Y-100.725
X109.544Y-157.984
X113.495Y-139.399
X117.445Y-120.815
X121.395Y-102.23
X127.609Y-164.38
X131.56Y-145.795
X135.51Y-127.21
X139.46Y-108.626
X146.61Y-166.374
X150.56Y-147.789
X154.511Y-129.204
X158.461Y-110.62
X170.393Y-145.871
X173.167Y-176.108
X174.343Y-127.286
X178.293Y-108.701
X246.629Y-108.701
X250.579Y-127.286
X251.756Y-176.108
X254.529Y-145.871
X266.461Y-110.62
X270.411Y-129.204
X274.362Y-147.789
X278.312Y-166.374
X285.462Y-108.626
X289.412Y-127.21
X293.362Y-145.795
X297.313Y-164.38
X303.527Y-102.23
X307.477Y-120.815
X311.427Y-139.399
X315.378Y-157.984
X322.631Y-100.725
X326.582Y-119.31
X330.532Y-137.895
X341.736Y-99.22
X345.686Y-117.805
X349.637Y-136.39
X360.737Y-97.226
X364.687Y-115.811
X368.637Y-134.396
T0
M30
